<svg width="676" height="487" viewBox="0 0 676 487" fill="none" xmlns="http://www.w3.org/2000/svg">
<g filter="url(#filter0_d_6_328)">
<rect x="4" width="668" height="479" fill="#E3DFF2"/>
<rect x="5.5" y="1.5" width="665" height="476" stroke="black" stroke-width="3"/>
</g>
<path d="M481.941 220.077L527.63 210.703" stroke="black" stroke-width="4"/>
<g filter="url(#filter1_d_6_328)">
<path d="M487.659 257.57C487.659 232.189 479.919 207.206 465.133 184.859L382.158 221.214C389.551 232.388 393.422 244.879 393.422 257.57H487.659Z" fill="#90EE90" stroke="black" stroke-width="4"/>
</g>
<path d="M549.308 215.18C548.36 215.18 547.484 215.024 546.68 214.712C545.888 214.388 545.198 213.938 544.61 213.362C544.022 212.774 543.566 212.084 543.242 211.292C542.93 210.488 542.774 209.606 542.774 208.646C542.774 207.71 542.942 206.846 543.278 206.054C543.614 205.262 544.076 204.578 544.664 204.002C545.264 203.414 545.966 202.958 546.77 202.634C547.586 202.31 548.474 202.148 549.434 202.148C550.034 202.148 550.622 202.226 551.198 202.382C551.774 202.538 552.308 202.772 552.8 203.084C553.304 203.384 553.736 203.744 554.096 204.164L552.224 206.306C551.972 206.042 551.702 205.814 551.414 205.622C551.138 205.418 550.832 205.262 550.496 205.154C550.16 205.046 549.8 204.992 549.416 204.992C548.936 204.992 548.48 205.082 548.048 205.262C547.628 205.43 547.256 205.676 546.932 206C546.62 206.312 546.374 206.696 546.194 207.152C546.014 207.608 545.924 208.118 545.924 208.682C545.924 209.234 546.014 209.738 546.194 210.194C546.374 210.638 546.626 211.022 546.95 211.346C547.274 211.67 547.664 211.916 548.12 212.084C548.588 212.252 549.104 212.336 549.668 212.336C550.052 212.336 550.418 212.282 550.766 212.174C551.114 212.066 551.432 211.922 551.72 211.742C552.02 211.55 552.284 211.334 552.512 211.094L553.988 213.434C553.688 213.77 553.286 214.07 552.782 214.334C552.29 214.598 551.738 214.808 551.126 214.964C550.526 215.108 549.92 215.18 549.308 215.18ZM555.776 215V201.68H558.602V207.386L558.026 207.602C558.158 207.17 558.392 206.78 558.728 206.432C559.076 206.072 559.49 205.784 559.97 205.568C560.45 205.352 560.954 205.244 561.482 205.244C562.202 205.244 562.808 205.394 563.3 205.694C563.792 205.982 564.164 206.42 564.416 207.008C564.668 207.584 564.794 208.292 564.794 209.132V215H561.896V209.366C561.896 208.982 561.842 208.664 561.734 208.412C561.626 208.16 561.458 207.974 561.23 207.854C561.014 207.722 560.744 207.662 560.42 207.674C560.168 207.674 559.934 207.716 559.718 207.8C559.502 207.872 559.316 207.986 559.16 208.142C559.004 208.286 558.878 208.454 558.782 208.646C558.698 208.838 558.656 209.048 558.656 209.276V215H557.234C556.898 215 556.61 215 556.37 215C556.13 215 555.932 215 555.776 215ZM571.756 215.18C570.7 215.18 569.782 214.97 569.002 214.55C568.222 214.118 567.616 213.536 567.184 212.804C566.752 212.06 566.536 211.214 566.536 210.266C566.536 209.534 566.656 208.862 566.896 208.25C567.136 207.638 567.472 207.11 567.904 206.666C568.336 206.21 568.846 205.862 569.434 205.622C570.034 205.37 570.688 205.244 571.396 205.244C572.068 205.244 572.68 205.364 573.232 205.604C573.796 205.844 574.282 206.18 574.69 206.612C575.098 207.044 575.41 207.554 575.626 208.142C575.842 208.73 575.938 209.372 575.914 210.068L575.896 210.842H568.282L567.868 209.222H573.556L573.25 209.564V209.204C573.226 208.904 573.13 208.64 572.962 208.412C572.806 208.172 572.596 207.986 572.332 207.854C572.068 207.722 571.768 207.656 571.432 207.656C570.964 207.656 570.562 207.752 570.226 207.944C569.902 208.124 569.656 208.394 569.488 208.754C569.32 209.102 569.236 209.534 569.236 210.05C569.236 210.578 569.344 211.04 569.56 211.436C569.788 211.82 570.112 212.12 570.532 212.336C570.964 212.552 571.474 212.66 572.062 212.66C572.47 212.66 572.83 212.6 573.142 212.48C573.466 212.36 573.814 212.156 574.186 211.868L575.536 213.776C575.164 214.1 574.768 214.364 574.348 214.568C573.928 214.772 573.496 214.922 573.052 215.018C572.62 215.126 572.188 215.18 571.756 215.18ZM577.749 215V205.442H580.485L580.575 207.386L579.999 207.602C580.131 207.17 580.365 206.78 580.701 206.432C581.049 206.072 581.463 205.784 581.943 205.568C582.423 205.352 582.927 205.244 583.455 205.244C584.175 205.244 584.781 205.394 585.273 205.694C585.765 205.982 586.137 206.42 586.389 207.008C586.641 207.584 586.767 208.292 586.767 209.132V215H583.869V209.366C583.869 208.982 583.815 208.664 583.707 208.412C583.599 208.16 583.431 207.974 583.203 207.854C582.987 207.722 582.717 207.662 582.393 207.674C582.141 207.674 581.907 207.716 581.691 207.8C581.475 207.872 581.289 207.986 581.133 208.142C580.977 208.286 580.851 208.454 580.755 208.646C580.671 208.838 580.629 209.048 580.629 209.276V215H579.207C578.871 215 578.583 215 578.343 215C578.103 215 577.905 215 577.749 215ZM589.174 215V205.442H591.91L592 207.386L591.424 207.602C591.556 207.17 591.79 206.78 592.126 206.432C592.474 206.072 592.888 205.784 593.368 205.568C593.848 205.352 594.352 205.244 594.88 205.244C595.6 205.244 596.206 205.394 596.698 205.694C597.19 205.982 597.562 206.42 597.814 207.008C598.066 207.584 598.192 208.292 598.192 209.132V215H595.294V209.366C595.294 208.982 595.24 208.664 595.132 208.412C595.024 208.16 594.856 207.974 594.628 207.854C594.412 207.722 594.142 207.662 593.818 207.674C593.566 207.674 593.332 207.716 593.116 207.8C592.9 207.872 592.714 207.986 592.558 208.142C592.402 208.286 592.276 208.454 592.18 208.646C592.096 208.838 592.054 209.048 592.054 209.276V215H590.632C590.296 215 590.008 215 589.768 215C589.528 215 589.33 215 589.174 215ZM604.128 215.162C603.324 215.162 602.604 214.952 601.968 214.532C601.344 214.1 600.846 213.512 600.474 212.768C600.102 212.012 599.916 211.16 599.916 210.212C599.916 209.24 600.102 208.382 600.474 207.638C600.846 206.894 601.356 206.312 602.004 205.892C602.652 205.46 603.39 205.244 604.218 205.244C604.674 205.244 605.088 205.31 605.46 205.442C605.844 205.574 606.18 205.76 606.468 206C606.756 206.228 607.002 206.498 607.206 206.81C607.41 207.11 607.56 207.434 607.656 207.782L607.062 207.71V205.442H609.924V215H607.008V212.696L607.656 212.678C607.56 213.014 607.404 213.332 607.188 213.632C606.972 213.932 606.708 214.196 606.396 214.424C606.084 214.652 605.736 214.832 605.352 214.964C604.968 215.096 604.56 215.162 604.128 215.162ZM604.92 212.732C605.364 212.732 605.748 212.63 606.072 212.426C606.396 212.222 606.648 211.934 606.828 211.562C607.008 211.178 607.098 210.728 607.098 210.212C607.098 209.696 607.008 209.252 606.828 208.88C606.648 208.496 606.396 208.202 606.072 207.998C605.748 207.782 605.364 207.674 604.92 207.674C604.488 207.674 604.11 207.782 603.786 207.998C603.474 208.202 603.228 208.496 603.048 208.88C602.868 209.252 602.778 209.696 602.778 210.212C602.778 210.728 602.868 211.178 603.048 211.562C603.228 211.934 603.474 212.222 603.786 212.426C604.11 212.63 604.488 212.732 604.92 212.732ZM612.628 215V205.442H615.508V215H612.628ZM614.068 203.552C613.528 203.552 613.102 203.426 612.79 203.174C612.49 202.91 612.34 202.538 612.34 202.058C612.34 201.626 612.496 201.272 612.808 200.996C613.12 200.72 613.54 200.582 614.068 200.582C614.608 200.582 615.028 200.714 615.328 200.978C615.628 201.23 615.778 201.59 615.778 202.058C615.778 202.502 615.622 202.862 615.31 203.138C615.01 203.414 614.596 203.552 614.068 203.552Z" fill="black"/>
<path d="M425.031 143.396L456.493 114.853" stroke="black" stroke-width="4"/>
<g filter="url(#filter2_d_6_328)">
<path d="M465.133 184.859C444.33 153.418 410.697 128.87 370.035 115.447L334.609 186.508C354.941 193.22 371.757 205.494 382.158 221.214L465.133 184.859Z" fill="#F8D6B3" stroke="black" stroke-width="4"/>
</g>
<path d="M458.584 100V87.4H463.858C464.782 87.4 465.628 87.556 466.396 87.868C467.164 88.168 467.824 88.6 468.376 89.164C468.94 89.728 469.372 90.394 469.672 91.162C469.972 91.93 470.122 92.776 470.122 93.7C470.122 94.624 469.972 95.476 469.672 96.256C469.372 97.024 468.94 97.69 468.376 98.254C467.824 98.806 467.164 99.238 466.396 99.55C465.628 99.85 464.782 100 463.858 100H458.584ZM461.644 97.912L461.23 97.3H463.768C464.272 97.3 464.722 97.216 465.118 97.048C465.514 96.868 465.85 96.622 466.126 96.31C466.414 95.998 466.636 95.62 466.792 95.176C466.948 94.732 467.026 94.24 467.026 93.7C467.026 93.16 466.948 92.668 466.792 92.224C466.636 91.78 466.414 91.402 466.126 91.09C465.85 90.778 465.514 90.538 465.118 90.37C464.722 90.19 464.272 90.1 463.768 90.1H461.176L461.644 89.524V97.912ZM476.736 100.18C475.68 100.18 474.762 99.97 473.982 99.55C473.202 99.118 472.596 98.536 472.164 97.804C471.732 97.06 471.516 96.214 471.516 95.266C471.516 94.534 471.636 93.862 471.876 93.25C472.116 92.638 472.452 92.11 472.884 91.666C473.316 91.21 473.826 90.862 474.414 90.622C475.014 90.37 475.668 90.244 476.376 90.244C477.048 90.244 477.66 90.364 478.212 90.604C478.776 90.844 479.262 91.18 479.67 91.612C480.078 92.044 480.39 92.554 480.606 93.142C480.822 93.73 480.918 94.372 480.894 95.068L480.876 95.842H473.262L472.848 94.222H478.536L478.23 94.564V94.204C478.206 93.904 478.11 93.64 477.942 93.412C477.786 93.172 477.576 92.986 477.312 92.854C477.048 92.722 476.748 92.656 476.412 92.656C475.944 92.656 475.542 92.752 475.206 92.944C474.882 93.124 474.636 93.394 474.468 93.754C474.3 94.102 474.216 94.534 474.216 95.05C474.216 95.578 474.324 96.04 474.54 96.436C474.768 96.82 475.092 97.12 475.512 97.336C475.944 97.552 476.454 97.66 477.042 97.66C477.45 97.66 477.81 97.6 478.122 97.48C478.446 97.36 478.794 97.156 479.166 96.868L480.516 98.776C480.144 99.1 479.748 99.364 479.328 99.568C478.908 99.772 478.476 99.922 478.032 100.018C477.6 100.126 477.168 100.18 476.736 100.18ZM482.747 100V86.68H485.627V100H482.747ZM488.196 100V86.68H491.022V92.386L490.446 92.602C490.578 92.17 490.812 91.78 491.148 91.432C491.496 91.072 491.91 90.784 492.39 90.568C492.87 90.352 493.374 90.244 493.902 90.244C494.622 90.244 495.228 90.394 495.72 90.694C496.212 90.982 496.584 91.42 496.836 92.008C497.088 92.584 497.214 93.292 497.214 94.132V100H494.316V94.366C494.316 93.982 494.262 93.664 494.154 93.412C494.046 93.16 493.878 92.974 493.65 92.854C493.434 92.722 493.164 92.662 492.84 92.674C492.588 92.674 492.354 92.716 492.138 92.8C491.922 92.872 491.736 92.986 491.58 93.142C491.424 93.286 491.298 93.454 491.202 93.646C491.118 93.838 491.076 94.048 491.076 94.276V100H489.654C489.318 100 489.03 100 488.79 100C488.55 100 488.352 100 488.196 100ZM499.784 100V90.442H502.664V100H499.784ZM501.224 88.552C500.684 88.552 500.258 88.426 499.946 88.174C499.646 87.91 499.496 87.538 499.496 87.058C499.496 86.626 499.652 86.272 499.964 85.996C500.276 85.72 500.696 85.582 501.224 85.582C501.764 85.582 502.184 85.714 502.484 85.978C502.784 86.23 502.934 86.59 502.934 87.058C502.934 87.502 502.778 87.862 502.466 88.138C502.166 88.414 501.752 88.552 501.224 88.552Z" fill="black"/>
<g filter="url(#filter3_d_6_328)">
<path d="M370.035 115.447C330.074 102.255 285.763 100.614 244.494 110.796C203.225 120.979 167.496 142.37 143.267 171.4L221.225 214.485C233.34 199.97 251.204 189.274 271.839 184.183C292.473 179.092 314.629 179.912 334.609 186.508L370.035 115.447Z" fill="#FAFD96" stroke="black" stroke-width="4"/>
</g>
<path d="M244.494 110.796L230.822 74.1028" stroke="black" stroke-width="4"/>
<path d="M187.036 63V50.4H189.772L194.362 57.87L192.4 57.852L197.044 50.4H199.672V63H196.702V59.076C196.702 57.996 196.726 57.024 196.774 56.16C196.834 55.296 196.93 54.438 197.062 53.586L197.404 54.522L193.912 59.94H192.724L189.304 54.558L189.646 53.586C189.778 54.39 189.868 55.218 189.916 56.07C189.976 56.91 190.006 57.912 190.006 59.076V63H187.036ZM205.791 63.198C205.083 63.198 204.477 63.048 203.973 62.748C203.481 62.436 203.097 61.992 202.821 61.416C202.557 60.84 202.425 60.15 202.425 59.346V53.442H205.323V58.95C205.323 59.334 205.383 59.664 205.503 59.94C205.623 60.216 205.803 60.432 206.043 60.588C206.283 60.732 206.571 60.804 206.907 60.804C207.159 60.804 207.387 60.762 207.591 60.678C207.807 60.594 207.987 60.48 208.131 60.336C208.287 60.18 208.407 60.006 208.491 59.814C208.575 59.61 208.617 59.388 208.617 59.148V53.442H211.515V63H208.797L208.671 61.038L209.211 60.822C209.067 61.278 208.827 61.686 208.491 62.046C208.155 62.394 207.753 62.676 207.285 62.892C206.817 63.096 206.319 63.198 205.791 63.198ZM214.064 63V53.442H216.8L216.89 55.17L216.512 55.188C216.656 54.876 216.836 54.6 217.052 54.36C217.28 54.12 217.532 53.922 217.808 53.766C218.096 53.598 218.39 53.472 218.69 53.388C219.002 53.304 219.314 53.262 219.626 53.262C220.094 53.262 220.52 53.334 220.904 53.478C221.288 53.622 221.624 53.856 221.912 54.18C222.2 54.492 222.428 54.918 222.596 55.458L222.146 55.422L222.29 55.134C222.446 54.846 222.644 54.588 222.884 54.36C223.136 54.12 223.412 53.922 223.712 53.766C224.012 53.598 224.324 53.472 224.648 53.388C224.972 53.304 225.284 53.262 225.584 53.262C226.34 53.262 226.97 53.412 227.474 53.712C227.978 54 228.356 54.438 228.608 55.026C228.872 55.614 229.004 56.328 229.004 57.168V63H226.106V57.402C226.106 57.018 226.052 56.7 225.944 56.448C225.836 56.196 225.674 56.01 225.458 55.89C225.254 55.758 224.996 55.692 224.684 55.692C224.432 55.692 224.198 55.734 223.982 55.818C223.778 55.902 223.598 56.016 223.442 56.16C223.298 56.304 223.184 56.472 223.1 56.664C223.016 56.856 222.974 57.072 222.974 57.312V63H220.076V57.384C220.076 57.024 220.022 56.718 219.914 56.466C219.806 56.214 219.644 56.022 219.428 55.89C219.212 55.758 218.96 55.692 218.672 55.692C218.42 55.692 218.186 55.734 217.97 55.818C217.766 55.902 217.586 56.016 217.43 56.16C217.286 56.304 217.172 56.472 217.088 56.664C217.004 56.856 216.962 57.066 216.962 57.294V63H214.064ZM237.138 63.198C236.706 63.198 236.292 63.138 235.896 63.018C235.5 62.898 235.14 62.736 234.816 62.532C234.504 62.328 234.24 62.094 234.024 61.83C233.82 61.554 233.682 61.272 233.61 60.984L234.24 60.768L234.078 62.982H231.396V49.68H234.294V55.728L233.7 55.512C233.772 55.2 233.91 54.912 234.114 54.648C234.318 54.372 234.576 54.132 234.888 53.928C235.2 53.712 235.542 53.544 235.914 53.424C236.286 53.304 236.67 53.244 237.066 53.244C237.894 53.244 238.626 53.46 239.262 53.892C239.91 54.312 240.42 54.9 240.792 55.656C241.164 56.4 241.35 57.252 241.35 58.212C241.35 59.184 241.164 60.048 240.792 60.804C240.432 61.548 239.934 62.136 239.298 62.568C238.662 62.988 237.942 63.198 237.138 63.198ZM236.382 60.768C236.814 60.768 237.192 60.66 237.516 60.444C237.84 60.228 238.086 59.934 238.254 59.562C238.434 59.178 238.524 58.728 238.524 58.212C238.524 57.708 238.434 57.264 238.254 56.88C238.086 56.496 237.84 56.202 237.516 55.998C237.192 55.794 236.814 55.692 236.382 55.692C235.938 55.692 235.554 55.794 235.23 55.998C234.906 56.202 234.654 56.496 234.474 56.88C234.294 57.264 234.204 57.708 234.204 58.212C234.204 58.728 234.294 59.178 234.474 59.562C234.654 59.934 234.906 60.228 235.23 60.444C235.554 60.66 235.938 60.768 236.382 60.768ZM246.772 63.162C245.968 63.162 245.248 62.952 244.612 62.532C243.988 62.1 243.49 61.512 243.118 60.768C242.746 60.012 242.56 59.16 242.56 58.212C242.56 57.24 242.746 56.382 243.118 55.638C243.49 54.894 244 54.312 244.648 53.892C245.296 53.46 246.034 53.244 246.862 53.244C247.318 53.244 247.732 53.31 248.104 53.442C248.488 53.574 248.824 53.76 249.112 54C249.4 54.228 249.646 54.498 249.85 54.81C250.054 55.11 250.204 55.434 250.3 55.782L249.706 55.71V53.442H252.568V63H249.652V60.696L250.3 60.678C250.204 61.014 250.048 61.332 249.832 61.632C249.616 61.932 249.352 62.196 249.04 62.424C248.728 62.652 248.38 62.832 247.996 62.964C247.612 63.096 247.204 63.162 246.772 63.162ZM247.564 60.732C248.008 60.732 248.392 60.63 248.716 60.426C249.04 60.222 249.292 59.934 249.472 59.562C249.652 59.178 249.742 58.728 249.742 58.212C249.742 57.696 249.652 57.252 249.472 56.88C249.292 56.496 249.04 56.202 248.716 55.998C248.392 55.782 248.008 55.674 247.564 55.674C247.132 55.674 246.754 55.782 246.43 55.998C246.118 56.202 245.872 56.496 245.692 56.88C245.512 57.252 245.422 57.696 245.422 58.212C245.422 58.728 245.512 59.178 245.692 59.562C245.872 59.934 246.118 60.222 246.43 60.426C246.754 60.63 247.132 60.732 247.564 60.732ZM255.271 63V53.442H258.151V63H255.271ZM256.711 51.552C256.171 51.552 255.745 51.426 255.433 51.174C255.133 50.91 254.983 50.538 254.983 50.058C254.983 49.626 255.139 49.272 255.451 48.996C255.763 48.72 256.183 48.582 256.711 48.582C257.251 48.582 257.671 48.714 257.971 48.978C258.271 49.23 258.421 49.59 258.421 50.058C258.421 50.502 258.265 50.862 257.953 51.138C257.653 51.414 257.239 51.552 256.711 51.552Z" fill="black"/>
<g filter="url(#filter4_d_6_328)">
<path d="M143.267 171.4C120.83 198.284 109.466 230.272 110.816 262.752C112.165 295.231 126.158 326.523 150.775 352.112C175.393 377.701 209.363 396.266 247.785 405.129C286.207 413.991 327.096 412.693 364.553 401.422L331.868 329.496C313.14 335.131 292.696 335.78 273.484 331.349C254.273 326.918 237.288 317.636 224.979 304.841C212.671 292.046 205.674 276.401 205 260.161C204.325 243.921 210.007 227.927 221.226 214.485L143.267 171.4Z" fill="#FFA07A" stroke="black" stroke-width="4"/>
</g>
<path d="M150.775 352.112L113.673 375.747" stroke="black" stroke-width="4"/>
<path d="M57.6968 401V388.4H63.2588C64.1228 388.4 64.8548 388.526 65.4548 388.778C66.0548 389.018 66.5048 389.372 66.8048 389.84C67.1168 390.296 67.2728 390.848 67.2728 391.496C67.2728 392.216 67.0928 392.822 66.7328 393.314C66.3848 393.806 65.8748 394.136 65.2028 394.304L65.1668 393.962C65.7308 394.082 66.2168 394.292 66.6248 394.592C67.0448 394.892 67.3688 395.264 67.5968 395.708C67.8248 396.14 67.9388 396.632 67.9388 397.184C67.9388 397.82 67.8308 398.378 67.6148 398.858C67.3988 399.326 67.0868 399.722 66.6788 400.046C66.2708 400.37 65.7908 400.61 65.2388 400.766C64.6988 400.922 64.0988 401 63.4388 401H57.6968ZM60.5768 398.444H63.3308C63.6668 398.444 63.9488 398.39 64.1768 398.282C64.4168 398.174 64.6028 398.018 64.7348 397.814C64.8668 397.598 64.9328 397.34 64.9328 397.04C64.9328 396.764 64.8608 396.53 64.7168 396.338C64.5848 396.146 64.3928 396.002 64.1408 395.906C63.8888 395.798 63.5888 395.744 63.2408 395.744H60.5768V398.444ZM60.5768 393.458H62.8268C63.1388 393.458 63.4028 393.41 63.6188 393.314C63.8468 393.206 64.0148 393.062 64.1228 392.882C64.2428 392.69 64.3028 392.462 64.3028 392.198C64.3028 391.814 64.1708 391.514 63.9068 391.298C63.6428 391.07 63.2468 390.956 62.7188 390.956H60.5768V393.458ZM74.5483 401.18C73.4923 401.18 72.5743 400.97 71.7943 400.55C71.0143 400.118 70.4083 399.536 69.9763 398.804C69.5443 398.06 69.3283 397.214 69.3283 396.266C69.3283 395.534 69.4483 394.862 69.6883 394.25C69.9283 393.638 70.2643 393.11 70.6963 392.666C71.1283 392.21 71.6383 391.862 72.2263 391.622C72.8263 391.37 73.4803 391.244 74.1883 391.244C74.8603 391.244 75.4723 391.364 76.0243 391.604C76.5883 391.844 77.0743 392.18 77.4823 392.612C77.8903 393.044 78.2023 393.554 78.4183 394.142C78.6343 394.73 78.7303 395.372 78.7063 396.068L78.6883 396.842H71.0743L70.6603 395.222H76.3483L76.0423 395.564V395.204C76.0183 394.904 75.9223 394.64 75.7543 394.412C75.5983 394.172 75.3883 393.986 75.1243 393.854C74.8603 393.722 74.5603 393.656 74.2243 393.656C73.7563 393.656 73.3543 393.752 73.0183 393.944C72.6943 394.124 72.4483 394.394 72.2803 394.754C72.1123 395.102 72.0283 395.534 72.0283 396.05C72.0283 396.578 72.1363 397.04 72.3523 397.436C72.5803 397.82 72.9043 398.12 73.3243 398.336C73.7563 398.552 74.2663 398.66 74.8543 398.66C75.2623 398.66 75.6223 398.6 75.9343 398.48C76.2583 398.36 76.6063 398.156 76.9783 397.868L78.3283 399.776C77.9563 400.1 77.5603 400.364 77.1403 400.568C76.7203 400.772 76.2883 400.922 75.8443 401.018C75.4123 401.126 74.9803 401.18 74.5483 401.18ZM80.5412 401V391.442H83.2772L83.3672 393.386L82.7912 393.602C82.9232 393.17 83.1572 392.78 83.4932 392.432C83.8412 392.072 84.2552 391.784 84.7352 391.568C85.2152 391.352 85.7192 391.244 86.2472 391.244C86.9672 391.244 87.5732 391.394 88.0652 391.694C88.5572 391.982 88.9292 392.42 89.1812 393.008C89.4332 393.584 89.5592 394.292 89.5592 395.132V401H86.6612V395.366C86.6612 394.982 86.6072 394.664 86.4992 394.412C86.3912 394.16 86.2232 393.974 85.9952 393.854C85.7792 393.722 85.5092 393.662 85.1852 393.674C84.9332 393.674 84.6992 393.716 84.4832 393.8C84.2672 393.872 84.0812 393.986 83.9252 394.142C83.7692 394.286 83.6432 394.454 83.5472 394.646C83.4632 394.838 83.4212 395.048 83.4212 395.276V401H81.9992C81.6632 401 81.3752 401 81.1352 401C80.8952 401 80.6972 401 80.5412 401ZM96.3409 405.14C95.5609 405.14 94.7809 405.026 94.0009 404.798C93.2329 404.57 92.6089 404.276 92.1289 403.916L93.1369 401.9C93.3889 402.068 93.6649 402.212 93.9649 402.332C94.2769 402.464 94.6009 402.566 94.9369 402.638C95.2729 402.71 95.6149 402.746 95.9629 402.746C96.5749 402.746 97.0729 402.656 97.4569 402.476C97.8409 402.296 98.1289 402.02 98.3209 401.648C98.5129 401.288 98.6089 400.832 98.6089 400.28V398.678L99.1669 398.768C99.0829 399.164 98.8729 399.524 98.5369 399.848C98.2129 400.172 97.8109 400.436 97.3309 400.64C96.8509 400.832 96.3409 400.928 95.8009 400.928C94.9369 400.928 94.1629 400.73 93.4789 400.334C92.8069 399.926 92.2729 399.368 91.8769 398.66C91.4929 397.94 91.3009 397.112 91.3009 396.176C91.3009 395.216 91.4929 394.37 91.8769 393.638C92.2609 392.894 92.7889 392.312 93.4609 391.892C94.1329 391.46 94.8889 391.244 95.7289 391.244C96.0889 391.244 96.4309 391.286 96.7549 391.37C97.0909 391.454 97.3969 391.568 97.6729 391.712C97.9609 391.844 98.2129 392.006 98.4289 392.198C98.6569 392.378 98.8369 392.576 98.9689 392.792C99.1129 393.008 99.2089 393.23 99.2569 393.458L98.6629 393.602L98.7709 391.442H101.507V400.226C101.507 401.006 101.387 401.696 101.147 402.296C100.919 402.908 100.577 403.424 100.121 403.844C99.6769 404.276 99.1369 404.6 98.5009 404.816C97.8649 405.032 97.1449 405.14 96.3409 405.14ZM96.4129 398.696C96.8809 398.696 97.2829 398.594 97.6189 398.39C97.9669 398.174 98.2309 397.88 98.4109 397.508C98.6029 397.136 98.6989 396.698 98.6989 396.194C98.6989 395.69 98.6029 395.252 98.4109 394.88C98.2309 394.496 97.9669 394.202 97.6189 393.998C97.2829 393.782 96.8809 393.674 96.4129 393.674C95.9569 393.674 95.5609 393.782 95.2249 393.998C94.8889 394.202 94.6249 394.496 94.4329 394.88C94.2529 395.252 94.1629 395.69 94.1629 396.194C94.1629 396.698 94.2529 397.136 94.4329 397.508C94.6249 397.88 94.8889 398.174 95.2249 398.39C95.5609 398.594 95.9569 398.696 96.4129 398.696ZM107.536 401.162C106.732 401.162 106.012 400.952 105.376 400.532C104.752 400.1 104.254 399.512 103.882 398.768C103.51 398.012 103.324 397.16 103.324 396.212C103.324 395.24 103.51 394.382 103.882 393.638C104.254 392.894 104.764 392.312 105.412 391.892C106.06 391.46 106.798 391.244 107.626 391.244C108.082 391.244 108.496 391.31 108.868 391.442C109.252 391.574 109.588 391.76 109.876 392C110.164 392.228 110.41 392.498 110.614 392.81C110.818 393.11 110.968 393.434 111.064 393.782L110.47 393.71V391.442H113.332V401H110.416V398.696L111.064 398.678C110.968 399.014 110.812 399.332 110.596 399.632C110.38 399.932 110.116 400.196 109.804 400.424C109.492 400.652 109.144 400.832 108.76 400.964C108.376 401.096 107.968 401.162 107.536 401.162ZM108.328 398.732C108.772 398.732 109.156 398.63 109.48 398.426C109.804 398.222 110.056 397.934 110.236 397.562C110.416 397.178 110.506 396.728 110.506 396.212C110.506 395.696 110.416 395.252 110.236 394.88C110.056 394.496 109.804 394.202 109.48 393.998C109.156 393.782 108.772 393.674 108.328 393.674C107.896 393.674 107.518 393.782 107.194 393.998C106.882 394.202 106.636 394.496 106.456 394.88C106.276 395.252 106.186 395.696 106.186 396.212C106.186 396.728 106.276 397.178 106.456 397.562C106.636 397.934 106.882 398.222 107.194 398.426C107.518 398.63 107.896 398.732 108.328 398.732ZM115.891 401V387.68H118.771V401H115.891ZM124.51 401.198C123.802 401.198 123.196 401.048 122.692 400.748C122.2 400.436 121.816 399.992 121.54 399.416C121.276 398.84 121.144 398.15 121.144 397.346V391.442H124.042V396.95C124.042 397.334 124.102 397.664 124.222 397.94C124.342 398.216 124.522 398.432 124.762 398.588C125.002 398.732 125.29 398.804 125.626 398.804C125.878 398.804 126.106 398.762 126.31 398.678C126.526 398.594 126.706 398.48 126.85 398.336C127.006 398.18 127.126 398.006 127.21 397.814C127.294 397.61 127.336 397.388 127.336 397.148V391.442H130.234V401H127.516L127.39 399.038L127.93 398.822C127.786 399.278 127.546 399.686 127.21 400.046C126.874 400.394 126.472 400.676 126.004 400.892C125.536 401.096 125.038 401.198 124.51 401.198ZM132.801 401V391.442H135.537L135.663 394.556L135.123 393.962C135.267 393.446 135.501 392.984 135.825 392.576C136.161 392.168 136.551 391.844 136.995 391.604C137.439 391.364 137.913 391.244 138.417 391.244C138.633 391.244 138.831 391.262 139.011 391.298C139.203 391.334 139.377 391.376 139.533 391.424L138.741 394.61C138.609 394.526 138.429 394.46 138.201 394.412C137.985 394.352 137.757 394.322 137.517 394.322C137.253 394.322 137.007 394.37 136.779 394.466C136.551 394.55 136.359 394.676 136.203 394.844C136.047 395.012 135.921 395.21 135.825 395.438C135.741 395.666 135.699 395.924 135.699 396.212V401H132.801ZM144.25 401.198C143.542 401.198 142.936 401.048 142.432 400.748C141.94 400.436 141.556 399.992 141.28 399.416C141.016 398.84 140.884 398.15 140.884 397.346V391.442H143.782V396.95C143.782 397.334 143.842 397.664 143.962 397.94C144.082 398.216 144.262 398.432 144.502 398.588C144.742 398.732 145.03 398.804 145.366 398.804C145.618 398.804 145.846 398.762 146.05 398.678C146.266 398.594 146.446 398.48 146.59 398.336C146.746 398.18 146.866 398.006 146.95 397.814C147.034 397.61 147.076 397.388 147.076 397.148V391.442H149.974V401H147.256L147.13 399.038L147.67 398.822C147.526 399.278 147.286 399.686 146.95 400.046C146.614 400.394 146.212 400.676 145.744 400.892C145.276 401.096 144.778 401.198 144.25 401.198Z" fill="black"/>
<path d="M454.368 353.373L493.035 375.285" stroke="black" stroke-width="4"/>
<g filter="url(#filter5_d_6_328)">
<path d="M364.553 401.421C400.677 390.551 431.841 370.937 453.851 345.218C475.86 319.499 487.659 288.91 487.659 257.57H393.422C393.422 273.24 387.522 288.534 376.517 301.394C365.512 314.253 349.93 324.061 331.868 329.496L364.553 401.421Z" fill="#C4A1FF" stroke="black" stroke-width="4"/>
</g>
<path d="M489.326 401.18C488.366 401.18 487.49 401.018 486.698 400.694C485.906 400.37 485.216 399.914 484.628 399.326C484.04 398.738 483.584 398.048 483.26 397.256C482.936 396.464 482.774 395.594 482.774 394.646C482.774 393.698 482.936 392.828 483.26 392.036C483.584 391.244 484.04 390.554 484.628 389.966C485.216 389.378 485.906 388.922 486.698 388.598C487.49 388.274 488.36 388.112 489.308 388.112C490.256 388.112 491.126 388.274 491.918 388.598C492.71 388.922 493.4 389.378 493.988 389.966C494.576 390.554 495.026 391.244 495.338 392.036C495.662 392.828 495.824 393.698 495.824 394.646C495.824 395.582 495.662 396.452 495.338 397.256C495.026 398.048 494.576 398.738 493.988 399.326C493.4 399.914 492.71 400.37 491.918 400.694C491.126 401.018 490.262 401.18 489.326 401.18ZM489.308 398.3C489.8 398.3 490.25 398.21 490.658 398.03C491.078 397.85 491.438 397.598 491.738 397.274C492.05 396.938 492.29 396.548 492.458 396.104C492.626 395.66 492.71 395.174 492.71 394.646C492.71 394.118 492.626 393.632 492.458 393.188C492.29 392.744 492.05 392.36 491.738 392.036C491.438 391.7 491.078 391.442 490.658 391.262C490.25 391.082 489.8 390.992 489.308 390.992C488.816 390.992 488.36 391.082 487.94 391.262C487.532 391.442 487.172 391.7 486.86 392.036C486.548 392.36 486.308 392.744 486.14 393.188C485.984 393.632 485.906 394.118 485.906 394.646C485.906 395.174 485.984 395.666 486.14 396.122C486.308 396.566 486.548 396.95 486.86 397.274C487.172 397.598 487.532 397.85 487.94 398.03C488.36 398.21 488.816 398.3 489.308 398.3ZM498.677 401V389.03H501.557V401H498.677ZM496.985 393.962V391.442H503.411V393.962H496.985ZM505.057 401V387.68H507.883V393.386L507.307 393.602C507.439 393.17 507.673 392.78 508.009 392.432C508.357 392.072 508.771 391.784 509.251 391.568C509.731 391.352 510.235 391.244 510.763 391.244C511.483 391.244 512.089 391.394 512.581 391.694C513.073 391.982 513.445 392.42 513.697 393.008C513.949 393.584 514.075 394.292 514.075 395.132V401H511.177V395.366C511.177 394.982 511.123 394.664 511.015 394.412C510.907 394.16 510.739 393.974 510.511 393.854C510.295 393.722 510.025 393.662 509.701 393.674C509.449 393.674 509.215 393.716 508.999 393.8C508.783 393.872 508.597 393.986 508.441 394.142C508.285 394.286 508.159 394.454 508.063 394.646C507.979 394.838 507.937 395.048 507.937 395.276V401H506.515C506.179 401 505.891 401 505.651 401C505.411 401 505.213 401 505.057 401ZM521.037 401.18C519.981 401.18 519.063 400.97 518.283 400.55C517.503 400.118 516.897 399.536 516.465 398.804C516.033 398.06 515.817 397.214 515.817 396.266C515.817 395.534 515.937 394.862 516.177 394.25C516.417 393.638 516.753 393.11 517.185 392.666C517.617 392.21 518.127 391.862 518.715 391.622C519.315 391.37 519.969 391.244 520.677 391.244C521.349 391.244 521.961 391.364 522.513 391.604C523.077 391.844 523.563 392.18 523.971 392.612C524.379 393.044 524.691 393.554 524.907 394.142C525.123 394.73 525.219 395.372 525.195 396.068L525.177 396.842H517.563L517.149 395.222H522.837L522.531 395.564V395.204C522.507 394.904 522.411 394.64 522.243 394.412C522.087 394.172 521.877 393.986 521.613 393.854C521.349 393.722 521.049 393.656 520.713 393.656C520.245 393.656 519.843 393.752 519.507 393.944C519.183 394.124 518.937 394.394 518.769 394.754C518.601 395.102 518.517 395.534 518.517 396.05C518.517 396.578 518.625 397.04 518.841 397.436C519.069 397.82 519.393 398.12 519.813 398.336C520.245 398.552 520.755 398.66 521.343 398.66C521.751 398.66 522.111 398.6 522.423 398.48C522.747 398.36 523.095 398.156 523.467 397.868L524.817 399.776C524.445 400.1 524.049 400.364 523.629 400.568C523.209 400.772 522.777 400.922 522.333 401.018C521.901 401.126 521.469 401.18 521.037 401.18ZM527.03 401V391.442H529.766L529.892 394.556L529.352 393.962C529.496 393.446 529.73 392.984 530.054 392.576C530.39 392.168 530.78 391.844 531.224 391.604C531.668 391.364 532.142 391.244 532.646 391.244C532.862 391.244 533.06 391.262 533.24 391.298C533.432 391.334 533.606 391.376 533.762 391.424L532.97 394.61C532.838 394.526 532.658 394.46 532.43 394.412C532.214 394.352 531.986 394.322 531.746 394.322C531.482 394.322 531.236 394.37 531.008 394.466C530.78 394.55 530.588 394.676 530.432 394.844C530.276 395.012 530.15 395.21 530.054 395.438C529.97 395.666 529.928 395.924 529.928 396.212V401H527.03ZM538.443 401.18C537.507 401.18 536.679 401.03 535.959 400.73C535.251 400.43 534.687 400.028 534.267 399.524L536.013 398.012C536.385 398.384 536.805 398.66 537.273 398.84C537.741 399.008 538.185 399.092 538.605 399.092C538.773 399.092 538.923 399.074 539.055 399.038C539.187 399.002 539.295 398.954 539.379 398.894C539.475 398.822 539.547 398.744 539.595 398.66C539.643 398.564 539.667 398.456 539.667 398.336C539.667 398.096 539.559 397.91 539.343 397.778C539.235 397.718 539.055 397.646 538.803 397.562C538.551 397.478 538.227 397.382 537.831 397.274C537.267 397.13 536.775 396.962 536.355 396.77C535.947 396.566 535.611 396.332 535.347 396.068C535.107 395.816 534.921 395.54 534.789 395.24C534.657 394.928 534.591 394.58 534.591 394.196C534.591 393.752 534.693 393.35 534.897 392.99C535.113 392.63 535.395 392.318 535.743 392.054C536.103 391.79 536.511 391.592 536.967 391.46C537.435 391.316 537.915 391.244 538.407 391.244C538.935 391.244 539.439 391.304 539.919 391.424C540.399 391.544 540.843 391.712 541.251 391.928C541.671 392.144 542.043 392.402 542.367 392.702L540.855 394.394C540.639 394.19 540.393 394.01 540.117 393.854C539.853 393.686 539.577 393.554 539.289 393.458C539.001 393.362 538.737 393.314 538.497 393.314C538.317 393.314 538.155 393.332 538.011 393.368C537.879 393.392 537.765 393.44 537.669 393.512C537.573 393.572 537.501 393.65 537.453 393.746C537.405 393.83 537.381 393.932 537.381 394.052C537.381 394.172 537.411 394.286 537.471 394.394C537.543 394.502 537.639 394.592 537.759 394.664C537.879 394.736 538.071 394.82 538.335 394.916C538.599 395 538.959 395.108 539.415 395.24C539.979 395.396 540.465 395.57 540.873 395.762C541.281 395.954 541.605 396.182 541.845 396.446C542.037 396.65 542.181 396.89 542.277 397.166C542.373 397.43 542.421 397.718 542.421 398.03C542.421 398.642 542.247 399.188 541.899 399.668C541.563 400.136 541.095 400.508 540.495 400.784C539.895 401.048 539.211 401.18 538.443 401.18Z" fill="black"/>
<defs>
<filter id="filter0_d_6_328" x="0" y="0" width="676" height="487" filterUnits="userSpaceOnUse" color-interpolation-filters="sRGB">
<feFlood flood-opacity="0" result="BackgroundImageFix"/>
<feColorMatrix in="SourceAlpha" type="matrix" values="0 0 0 0 0 0 0 0 0 0 0 0 0 0 0 0 0 0 127 0" result="hardAlpha"/>
<feOffset dy="4"/>
<feGaussianBlur stdDeviation="2"/>
<feComposite in2="hardAlpha" operator="out"/>
<feColorMatrix type="matrix" values="0 0 0 0 0 0 0 0 0 0 0 0 0 0 0 0 0 0 0.25 0"/>
<feBlend mode="normal" in2="BackgroundImageFix" result="effect1_dropShadow_6_328"/>
<feBlend mode="normal" in="SourceGraphic" in2="effect1_dropShadow_6_328" result="shape"/>
</filter>
<filter id="filter1_d_6_328" x="375.179" y="182.351" width="118.48" height="85.2183" filterUnits="userSpaceOnUse" color-interpolation-filters="sRGB">
<feFlood flood-opacity="0" result="BackgroundImageFix"/>
<feColorMatrix in="SourceAlpha" type="matrix" values="0 0 0 0 0 0 0 0 0 0 0 0 0 0 0 0 0 0 127 0" result="hardAlpha"/>
<feOffset dy="4"/>
<feGaussianBlur stdDeviation="2"/>
<feComposite in2="hardAlpha" operator="out"/>
<feColorMatrix type="matrix" values="0 0 0 0 0 0 0 0 0 0 0 0 0 0 0 0 0 0 0.25 0"/>
<feBlend mode="normal" in2="BackgroundImageFix" result="effect1_dropShadow_6_328"/>
<feBlend mode="normal" in="SourceGraphic" in2="effect1_dropShadow_6_328" result="shape"/>
</filter>
<filter id="filter2_d_6_328" x="327.789" y="113.005" width="144.323" height="118.717" filterUnits="userSpaceOnUse" color-interpolation-filters="sRGB">
<feFlood flood-opacity="0" result="BackgroundImageFix"/>
<feColorMatrix in="SourceAlpha" type="matrix" values="0 0 0 0 0 0 0 0 0 0 0 0 0 0 0 0 0 0 127 0" result="hardAlpha"/>
<feOffset dy="4"/>
<feGaussianBlur stdDeviation="2"/>
<feComposite in2="hardAlpha" operator="out"/>
<feColorMatrix type="matrix" values="0 0 0 0 0 0 0 0 0 0 0 0 0 0 0 0 0 0 0.25 0"/>
<feBlend mode="normal" in2="BackgroundImageFix" result="effect1_dropShadow_6_328"/>
<feBlend mode="normal" in="SourceGraphic" in2="effect1_dropShadow_6_328" result="shape"/>
</filter>
<filter id="filter3_d_6_328" x="136.179" y="102.197" width="240.676" height="122.836" filterUnits="userSpaceOnUse" color-interpolation-filters="sRGB">
<feFlood flood-opacity="0" result="BackgroundImageFix"/>
<feColorMatrix in="SourceAlpha" type="matrix" values="0 0 0 0 0 0 0 0 0 0 0 0 0 0 0 0 0 0 127 0" result="hardAlpha"/>
<feOffset dy="4"/>
<feGaussianBlur stdDeviation="2"/>
<feComposite in2="hardAlpha" operator="out"/>
<feColorMatrix type="matrix" values="0 0 0 0 0 0 0 0 0 0 0 0 0 0 0 0 0 0 0.25 0"/>
<feBlend mode="normal" in2="BackgroundImageFix" result="effect1_dropShadow_6_328"/>
<feBlend mode="normal" in="SourceGraphic" in2="effect1_dropShadow_6_328" result="shape"/>
</filter>
<filter id="filter4_d_6_328" x="104.708" y="168.851" width="266.613" height="252.091" filterUnits="userSpaceOnUse" color-interpolation-filters="sRGB">
<feFlood flood-opacity="0" result="BackgroundImageFix"/>
<feColorMatrix in="SourceAlpha" type="matrix" values="0 0 0 0 0 0 0 0 0 0 0 0 0 0 0 0 0 0 127 0" result="hardAlpha"/>
<feOffset dy="4"/>
<feGaussianBlur stdDeviation="2"/>
<feComposite in2="hardAlpha" operator="out"/>
<feColorMatrix type="matrix" values="0 0 0 0 0 0 0 0 0 0 0 0 0 0 0 0 0 0 0.25 0"/>
<feBlend mode="normal" in2="BackgroundImageFix" result="effect1_dropShadow_6_328"/>
<feBlend mode="normal" in="SourceGraphic" in2="effect1_dropShadow_6_328" result="shape"/>
</filter>
<filter id="filter5_d_6_328" x="325.101" y="255.57" width="168.558" height="156.271" filterUnits="userSpaceOnUse" color-interpolation-filters="sRGB">
<feFlood flood-opacity="0" result="BackgroundImageFix"/>
<feColorMatrix in="SourceAlpha" type="matrix" values="0 0 0 0 0 0 0 0 0 0 0 0 0 0 0 0 0 0 127 0" result="hardAlpha"/>
<feOffset dy="4"/>
<feGaussianBlur stdDeviation="2"/>
<feComposite in2="hardAlpha" operator="out"/>
<feColorMatrix type="matrix" values="0 0 0 0 0 0 0 0 0 0 0 0 0 0 0 0 0 0 0.25 0"/>
<feBlend mode="normal" in2="BackgroundImageFix" result="effect1_dropShadow_6_328"/>
<feBlend mode="normal" in="SourceGraphic" in2="effect1_dropShadow_6_328" result="shape"/>
</filter>
</defs>
</svg>
