<svg width="761" height="288" viewBox="0 0 761 288" fill="none" xmlns="http://www.w3.org/2000/svg">
<g filter="url(#filter0_d_5_316)">
<g filter="url(#filter1_d_5_316)">
<rect x="4" width="753" height="280" fill="#E3DFF2"/>
<rect x="5.5" y="1.5" width="750" height="277" stroke="black" stroke-width="3"/>
</g>
<g clip-path="url(#clip0_5_316)">
<path d="M119 195H717" stroke="black"/>
<path d="M119 201V195" stroke="black"/>
<path d="M119.493 225.68C118.586 225.68 117.808 225.451 117.157 224.992C116.517 224.523 116.021 223.861 115.669 223.008C115.328 222.144 115.157 221.115 115.157 219.92C115.157 218.725 115.328 217.701 115.669 216.848C116.021 215.984 116.517 215.323 117.157 214.864C117.808 214.395 118.586 214.16 119.493 214.16C120.4 214.16 121.178 214.395 121.829 214.864C122.48 215.323 122.976 215.984 123.317 216.848C123.669 217.701 123.845 218.725 123.845 219.92C123.845 221.115 123.669 222.144 123.317 223.008C122.976 223.861 122.48 224.523 121.829 224.992C121.178 225.451 120.4 225.68 119.493 225.68ZM119.493 223.856C120.24 223.856 120.816 223.515 121.221 222.832C121.637 222.139 121.845 221.168 121.845 219.92C121.845 218.661 121.637 217.685 121.221 216.992C120.816 216.299 120.24 215.952 119.493 215.952C118.746 215.952 118.165 216.299 117.749 216.992C117.344 217.685 117.141 218.661 117.141 219.92C117.141 221.168 117.344 222.139 117.749 222.832C118.165 223.515 118.746 223.856 119.493 223.856Z" fill="black"/>
<path d="M139.621 201V195" stroke="black"/>
<path d="M139.381 224.736V215.648L139.973 216.416L137.701 217.568L137.237 215.744L140.293 214.16H141.445V224.736H139.381ZM137.509 225.52V223.6H143.365V225.52H137.509Z" fill="black"/>
<path d="M160.241 201V195" stroke="black"/>
<path d="M157.655 225.52L157.127 224.208L160.487 220.448C160.679 220.256 160.876 220.037 161.079 219.792C161.281 219.536 161.473 219.275 161.655 219.008C161.847 218.731 162.001 218.464 162.119 218.208C162.236 217.941 162.295 217.696 162.295 217.472C162.295 217.184 162.231 216.933 162.103 216.72C161.985 216.507 161.815 216.341 161.591 216.224C161.367 216.107 161.089 216.048 160.759 216.048C160.471 216.048 160.188 216.133 159.911 216.304C159.644 216.464 159.393 216.699 159.159 217.008C158.935 217.307 158.748 217.664 158.599 218.08L157.031 217.152C157.223 216.533 157.511 216 157.895 215.552C158.289 215.093 158.748 214.741 159.271 214.496C159.804 214.251 160.38 214.128 160.999 214.128C161.639 214.128 162.209 214.261 162.711 214.528C163.212 214.795 163.607 215.163 163.895 215.632C164.193 216.101 164.343 216.651 164.343 217.28C164.343 217.515 164.316 217.76 164.263 218.016C164.209 218.261 164.124 218.523 164.007 218.8C163.9 219.067 163.756 219.349 163.575 219.648C163.393 219.936 163.175 220.24 162.919 220.56C162.673 220.88 162.391 221.216 162.071 221.568L159.527 224.336L159.207 223.6H164.743V225.52H157.655Z" fill="black"/>
<path d="M180.862 201V195" stroke="black"/>
<path d="M181.18 225.68C180.348 225.68 179.622 225.499 179.004 225.136C178.385 224.763 177.814 224.133 177.292 223.248L178.86 222.256C179.105 222.651 179.356 222.971 179.612 223.216C179.878 223.451 180.145 223.627 180.412 223.744C180.689 223.851 180.982 223.904 181.292 223.904C181.644 223.904 181.964 223.819 182.252 223.648C182.55 223.477 182.785 223.243 182.956 222.944C183.137 222.645 183.228 222.304 183.228 221.92C183.228 221.536 183.153 221.211 183.004 220.944C182.865 220.677 182.657 220.475 182.38 220.336C182.113 220.187 181.788 220.112 181.404 220.112C181.233 220.112 181.052 220.133 180.86 220.176C180.668 220.208 180.465 220.261 180.252 220.336C180.038 220.4 179.804 220.48 179.548 220.576L179.036 219.216L182.22 215.696L182.7 216.16L177.98 216.128V214.288H184.556L184.94 215.056L181.26 219.072L180.78 218.544C180.865 218.501 181.004 218.464 181.196 218.432C181.398 218.389 181.574 218.368 181.724 218.368C182.193 218.368 182.641 218.459 183.068 218.64C183.494 218.811 183.862 219.056 184.172 219.376C184.492 219.696 184.742 220.069 184.924 220.496C185.105 220.912 185.196 221.365 185.196 221.856C185.196 222.592 185.014 223.248 184.652 223.824C184.3 224.389 183.82 224.843 183.212 225.184C182.604 225.515 181.926 225.68 181.18 225.68Z" fill="black"/>
<path d="M201.483 201V195" stroke="black"/>
<path d="M202.521 225.52V216.48L203.289 216.56L199.481 221.216L199.305 220.928H206.425V222.736H198.185L197.321 221.072L202.889 214.288H204.521V225.52H202.521Z" fill="black"/>
<path d="M222.103 201V195" stroke="black"/>
<path d="M221.734 225.632C220.956 225.632 220.252 225.467 219.622 225.136C218.993 224.795 218.47 224.304 218.054 223.664L219.206 222.416C219.676 222.939 220.097 223.301 220.47 223.504C220.844 223.696 221.254 223.792 221.702 223.792C222.108 223.792 222.47 223.707 222.79 223.536C223.11 223.355 223.366 223.115 223.558 222.816C223.75 222.507 223.846 222.171 223.846 221.808C223.846 221.413 223.756 221.067 223.574 220.768C223.393 220.459 223.148 220.213 222.838 220.032C222.529 219.851 222.177 219.76 221.782 219.76C221.569 219.76 221.366 219.776 221.174 219.808C220.982 219.84 220.758 219.904 220.502 220C220.257 220.096 219.942 220.245 219.558 220.448L218.566 219.104L219.222 214.288H225.414V216.128H220.39L220.854 215.616L220.326 219.168L219.734 218.752C219.873 218.624 220.076 218.501 220.342 218.384C220.62 218.267 220.918 218.171 221.238 218.096C221.558 218.021 221.873 217.984 222.182 217.984C222.876 217.984 223.494 218.144 224.038 218.464C224.582 218.784 225.014 219.227 225.334 219.792C225.654 220.347 225.814 220.987 225.814 221.712C225.814 222.448 225.633 223.115 225.27 223.712C224.918 224.299 224.433 224.768 223.814 225.12C223.196 225.461 222.502 225.632 221.734 225.632Z" fill="black"/>
<path d="M242.724 201V195" stroke="black"/>
<path d="M242.793 225.52C242.227 225.52 241.699 225.419 241.209 225.216C240.729 225.013 240.307 224.736 239.945 224.384C239.593 224.021 239.315 223.6 239.113 223.12C238.91 222.64 238.809 222.112 238.809 221.536C238.809 221.216 238.846 220.875 238.921 220.512C239.006 220.149 239.129 219.765 239.289 219.36C239.459 218.944 239.657 218.512 239.881 218.064C240.105 217.616 240.366 217.147 240.665 216.656L242.153 214.128H244.137L244.201 214.288L242.297 217.424C241.987 217.936 241.715 218.421 241.481 218.88C241.246 219.328 241.043 219.76 240.873 220.176C240.713 220.581 240.579 220.976 240.473 221.36L240.041 219.904C240.201 219.563 240.398 219.253 240.633 218.976C240.867 218.699 241.129 218.464 241.417 218.272C241.705 218.08 242.003 217.936 242.313 217.84C242.633 217.744 242.958 217.696 243.289 217.696C243.907 217.696 244.478 217.867 245.001 218.208C245.523 218.539 245.939 218.981 246.249 219.536C246.569 220.091 246.729 220.699 246.729 221.36C246.729 222.16 246.558 222.875 246.217 223.504C245.886 224.123 245.422 224.613 244.825 224.976C244.227 225.339 243.55 225.52 242.793 225.52ZM242.809 223.696C243.193 223.696 243.534 223.605 243.833 223.424C244.142 223.243 244.382 222.992 244.553 222.672C244.723 222.341 244.809 221.963 244.809 221.536C244.809 221.173 244.718 220.837 244.537 220.528C244.366 220.208 244.131 219.952 243.833 219.76C243.534 219.557 243.198 219.456 242.825 219.456C242.419 219.456 242.057 219.552 241.737 219.744C241.427 219.925 241.182 220.176 241.001 220.496C240.83 220.805 240.745 221.152 240.745 221.536C240.745 221.941 240.83 222.309 241.001 222.64C241.182 222.96 241.427 223.216 241.737 223.408C242.046 223.6 242.403 223.696 242.809 223.696Z" fill="black"/>
<path d="M263.345 201V195" stroke="black"/>
<path d="M260.61 225.52L265.202 215.376L265.586 216.16H259.858V214.288H266.914L267.154 215.456L262.77 225.52H260.61Z" fill="black"/>
<path d="M283.966 201V195" stroke="black"/>
<path d="M283.95 225.568C283.235 225.568 282.579 225.424 281.982 225.136C281.395 224.837 280.926 224.443 280.574 223.952C280.222 223.451 280.046 222.896 280.046 222.288C280.046 221.925 280.094 221.589 280.19 221.28C280.297 220.971 280.446 220.693 280.638 220.448C280.841 220.203 281.081 219.984 281.358 219.792C281.646 219.589 281.971 219.413 282.334 219.264L282.206 219.712C281.929 219.595 281.673 219.456 281.438 219.296C281.214 219.136 281.017 218.955 280.846 218.752C280.686 218.539 280.563 218.315 280.478 218.08C280.393 217.835 280.35 217.579 280.35 217.312C280.35 216.736 280.51 216.219 280.83 215.76C281.161 215.301 281.598 214.939 282.142 214.672C282.686 214.395 283.289 214.256 283.95 214.256C284.622 214.256 285.23 214.395 285.774 214.672C286.318 214.939 286.75 215.301 287.07 215.76C287.401 216.219 287.566 216.736 287.566 217.312C287.566 217.579 287.523 217.835 287.438 218.08C287.353 218.315 287.23 218.533 287.07 218.736C286.921 218.928 286.729 219.109 286.494 219.28C286.259 219.44 285.987 219.584 285.678 219.712L285.598 219.328C285.939 219.445 286.249 219.6 286.526 219.792C286.803 219.984 287.043 220.208 287.246 220.464C287.449 220.72 287.603 221.003 287.71 221.312C287.827 221.621 287.886 221.947 287.886 222.288C287.886 222.907 287.71 223.467 287.358 223.968C287.006 224.459 286.531 224.848 285.934 225.136C285.347 225.424 284.686 225.568 283.95 225.568ZM283.95 223.776C284.313 223.776 284.638 223.707 284.926 223.568C285.214 223.429 285.438 223.243 285.598 223.008C285.769 222.773 285.854 222.501 285.854 222.192C285.854 221.861 285.769 221.573 285.598 221.328C285.438 221.072 285.214 220.875 284.926 220.736C284.638 220.587 284.313 220.512 283.95 220.512C283.598 220.512 283.278 220.587 282.99 220.736C282.713 220.875 282.489 221.072 282.318 221.328C282.147 221.573 282.062 221.861 282.062 222.192C282.062 222.491 282.147 222.757 282.318 222.992C282.489 223.227 282.713 223.419 282.99 223.568C283.278 223.707 283.598 223.776 283.95 223.776ZM283.95 218.752C284.27 218.752 284.553 218.693 284.798 218.576C285.054 218.459 285.251 218.299 285.39 218.096C285.529 217.893 285.598 217.659 285.598 217.392C285.598 217.115 285.529 216.875 285.39 216.672C285.251 216.459 285.054 216.293 284.798 216.176C284.553 216.048 284.27 215.984 283.95 215.984C283.641 215.984 283.358 216.048 283.102 216.176C282.857 216.293 282.665 216.459 282.526 216.672C282.387 216.875 282.318 217.115 282.318 217.392C282.318 217.659 282.387 217.893 282.526 218.096C282.665 218.299 282.857 218.459 283.102 218.576C283.358 218.693 283.641 218.752 283.95 218.752Z" fill="black"/>
<path d="M304.586 201V195" stroke="black"/>
<path d="M304.146 225.52L304.082 225.36L307.474 218.288L307.666 219.488C307.506 219.829 307.308 220.133 307.074 220.4C306.85 220.667 306.588 220.901 306.29 221.104C306.002 221.296 305.703 221.445 305.394 221.552C305.084 221.648 304.775 221.696 304.466 221.696C303.858 221.696 303.298 221.536 302.786 221.216C302.274 220.885 301.863 220.453 301.554 219.92C301.244 219.376 301.09 218.784 301.09 218.144C301.09 217.387 301.266 216.704 301.618 216.096C301.97 215.477 302.444 214.992 303.042 214.64C303.65 214.277 304.332 214.096 305.09 214.096C305.634 214.096 306.146 214.197 306.626 214.4C307.116 214.592 307.538 214.864 307.89 215.216C308.252 215.568 308.535 215.973 308.738 216.432C308.951 216.891 309.058 217.376 309.058 217.888C309.058 218.197 309.026 218.517 308.962 218.848C308.908 219.168 308.818 219.52 308.69 219.904C308.562 220.288 308.396 220.709 308.194 221.168C308.002 221.627 307.767 222.149 307.49 222.736L306.13 225.52H304.146ZM304.93 219.904C305.314 219.904 305.66 219.819 305.97 219.648C306.279 219.467 306.519 219.232 306.69 218.944C306.86 218.656 306.946 218.325 306.946 217.952C306.946 217.568 306.86 217.221 306.69 216.912C306.519 216.603 306.284 216.363 305.986 216.192C305.687 216.011 305.346 215.92 304.962 215.92C304.599 215.92 304.279 216.005 304.002 216.176C303.724 216.347 303.5 216.587 303.33 216.896C303.17 217.195 303.09 217.547 303.09 217.952C303.09 218.293 303.17 218.613 303.33 218.912C303.5 219.211 303.724 219.451 304.002 219.632C304.29 219.813 304.599 219.904 304.93 219.904Z" fill="black"/>
<path d="M345.828 201V195" stroke="black"/>
<path d="M341.408 224.736V215.648L342 216.416L339.728 217.568L339.264 215.744L342.32 214.16H343.472V224.736H341.408ZM339.536 225.52V223.6H345.392V225.52H339.536ZM349.768 224.736V215.648L350.36 216.416L348.088 217.568L347.624 215.744L350.68 214.16H351.832V224.736H349.768ZM347.896 225.52V223.6H353.752V225.52H347.896Z" fill="black"/>
<path d="M387.069 201V195" stroke="black"/>
<path d="M381.923 224.736V215.648L382.515 216.416L380.243 217.568L379.779 215.744L382.835 214.16H383.987V224.736H381.923ZM380.051 225.52V223.6H385.907V225.52H380.051ZM391.066 225.68C390.234 225.68 389.509 225.499 388.89 225.136C388.272 224.763 387.701 224.133 387.178 223.248L388.746 222.256C388.992 222.651 389.242 222.971 389.498 223.216C389.765 223.451 390.032 223.627 390.298 223.744C390.576 223.851 390.869 223.904 391.178 223.904C391.53 223.904 391.85 223.819 392.138 223.648C392.437 223.477 392.672 223.243 392.842 222.944C393.024 222.645 393.114 222.304 393.114 221.92C393.114 221.536 393.04 221.211 392.89 220.944C392.752 220.677 392.544 220.475 392.266 220.336C392 220.187 391.674 220.112 391.29 220.112C391.12 220.112 390.938 220.133 390.746 220.176C390.554 220.208 390.352 220.261 390.138 220.336C389.925 220.4 389.69 220.48 389.434 220.576L388.922 219.216L392.106 215.696L392.586 216.16L387.866 216.128V214.288H394.442L394.826 215.056L391.146 219.072L390.666 218.544C390.752 218.501 390.89 218.464 391.082 218.432C391.285 218.389 391.461 218.368 391.61 218.368C392.08 218.368 392.528 218.459 392.954 218.64C393.381 218.811 393.749 219.056 394.058 219.376C394.378 219.696 394.629 220.069 394.81 220.496C394.992 220.912 395.082 221.365 395.082 221.856C395.082 222.592 394.901 223.248 394.538 223.824C394.186 224.389 393.706 224.843 393.098 225.184C392.49 225.515 391.813 225.68 391.066 225.68Z" fill="black"/>
<path d="M428.31 201V195" stroke="black"/>
<path d="M422.446 224.736V215.648L423.038 216.416L420.766 217.568L420.302 215.744L423.358 214.16H424.51V224.736H422.446ZM420.574 225.52V223.6H426.43V225.52H420.574ZM431.621 225.632C430.842 225.632 430.138 225.467 429.509 225.136C428.88 224.795 428.357 224.304 427.941 223.664L429.093 222.416C429.562 222.939 429.984 223.301 430.357 223.504C430.73 223.696 431.141 223.792 431.589 223.792C431.994 223.792 432.357 223.707 432.677 223.536C432.997 223.355 433.253 223.115 433.445 222.816C433.637 222.507 433.733 222.171 433.733 221.808C433.733 221.413 433.642 221.067 433.461 220.768C433.28 220.459 433.034 220.213 432.725 220.032C432.416 219.851 432.064 219.76 431.669 219.76C431.456 219.76 431.253 219.776 431.061 219.808C430.869 219.84 430.645 219.904 430.389 220C430.144 220.096 429.829 220.245 429.445 220.448L428.453 219.104L429.109 214.288H435.301V216.128H430.277L430.741 215.616L430.213 219.168L429.621 218.752C429.76 218.624 429.962 218.501 430.229 218.384C430.506 218.267 430.805 218.171 431.125 218.096C431.445 218.021 431.76 217.984 432.069 217.984C432.762 217.984 433.381 218.144 433.925 218.464C434.469 218.784 434.901 219.227 435.221 219.792C435.541 220.347 435.701 220.987 435.701 221.712C435.701 222.448 435.52 223.115 435.157 223.712C434.805 224.299 434.32 224.768 433.701 225.12C433.082 225.461 432.389 225.632 431.621 225.632Z" fill="black"/>
<path d="M469.552 201V195" stroke="black"/>
<path d="M463.945 224.736V215.648L464.537 216.416L462.265 217.568L461.801 215.744L464.857 214.16H466.009V224.736H463.945ZM462.073 225.52V223.6H467.929V225.52H462.073ZM470.496 225.52L475.088 215.376L475.472 216.16H469.744V214.288H476.8L477.04 215.456L472.656 225.52H470.496Z" fill="black"/>
<path d="M510.793 201V195" stroke="black"/>
<path d="M505.577 224.736V215.648L506.169 216.416L503.897 217.568L503.433 215.744L506.489 214.16H507.641V224.736H505.577ZM503.705 225.52V223.6H509.561V225.52H503.705ZM514.032 225.52L513.968 225.36L517.36 218.288L517.552 219.488C517.392 219.829 517.195 220.133 516.96 220.4C516.736 220.667 516.475 220.901 516.176 221.104C515.888 221.296 515.59 221.445 515.28 221.552C514.971 221.648 514.662 221.696 514.352 221.696C513.744 221.696 513.184 221.536 512.672 221.216C512.16 220.885 511.75 220.453 511.44 219.92C511.131 219.376 510.976 218.784 510.976 218.144C510.976 217.387 511.152 216.704 511.504 216.096C511.856 215.477 512.331 214.992 512.928 214.64C513.536 214.277 514.219 214.096 514.976 214.096C515.52 214.096 516.032 214.197 516.512 214.4C517.003 214.592 517.424 214.864 517.776 215.216C518.139 215.568 518.422 215.973 518.624 216.432C518.838 216.891 518.944 217.376 518.944 217.888C518.944 218.197 518.912 218.517 518.848 218.848C518.795 219.168 518.704 219.52 518.576 219.904C518.448 220.288 518.283 220.709 518.08 221.168C517.888 221.627 517.654 222.149 517.376 222.736L516.016 225.52H514.032ZM514.816 219.904C515.2 219.904 515.547 219.819 515.856 219.648C516.166 219.467 516.406 219.232 516.576 218.944C516.747 218.656 516.832 218.325 516.832 217.952C516.832 217.568 516.747 217.221 516.576 216.912C516.406 216.603 516.171 216.363 515.872 216.192C515.574 216.011 515.232 215.92 514.848 215.92C514.486 215.92 514.166 216.005 513.888 216.176C513.611 216.347 513.387 216.587 513.216 216.896C513.056 217.195 512.976 217.547 512.976 217.952C512.976 218.293 513.056 218.613 513.216 218.912C513.387 219.211 513.611 219.451 513.888 219.632C514.176 219.813 514.486 219.904 514.816 219.904Z" fill="black"/>
<path d="M552.034 201V195" stroke="black"/>
<path d="M544.268 225.52L543.74 224.208L547.1 220.448C547.292 220.256 547.489 220.037 547.692 219.792C547.895 219.536 548.087 219.275 548.268 219.008C548.46 218.731 548.615 218.464 548.732 218.208C548.849 217.941 548.908 217.696 548.908 217.472C548.908 217.184 548.844 216.933 548.716 216.72C548.599 216.507 548.428 216.341 548.204 216.224C547.98 216.107 547.703 216.048 547.372 216.048C547.084 216.048 546.801 216.133 546.524 216.304C546.257 216.464 546.007 216.699 545.772 217.008C545.548 217.307 545.361 217.664 545.212 218.08L543.644 217.152C543.836 216.533 544.124 216 544.508 215.552C544.903 215.093 545.361 214.741 545.884 214.496C546.417 214.251 546.993 214.128 547.612 214.128C548.252 214.128 548.823 214.261 549.324 214.528C549.825 214.795 550.22 215.163 550.508 215.632C550.807 216.101 550.956 216.651 550.956 217.28C550.956 217.515 550.929 217.76 550.876 218.016C550.823 218.261 550.737 218.523 550.62 218.8C550.513 219.067 550.369 219.349 550.188 219.648C550.007 219.936 549.788 220.24 549.532 220.56C549.287 220.88 549.004 221.216 548.684 221.568L546.14 224.336L545.82 223.6H551.356V225.52H544.268ZM555.178 224.736V215.648L555.77 216.416L553.498 217.568L553.034 215.744L556.09 214.16H557.242V224.736H555.178ZM553.306 225.52V223.6H559.162V225.52H553.306Z" fill="black"/>
<path d="M593.276 201V195" stroke="black"/>
<path d="M585.283 225.52L584.755 224.208L588.115 220.448C588.307 220.256 588.504 220.037 588.707 219.792C588.909 219.536 589.101 219.275 589.283 219.008C589.475 218.731 589.629 218.464 589.747 218.208C589.864 217.941 589.923 217.696 589.923 217.472C589.923 217.184 589.859 216.933 589.731 216.72C589.613 216.507 589.443 216.341 589.219 216.224C588.995 216.107 588.717 216.048 588.387 216.048C588.099 216.048 587.816 216.133 587.539 216.304C587.272 216.464 587.021 216.699 586.787 217.008C586.563 217.307 586.376 217.664 586.227 218.08L584.659 217.152C584.851 216.533 585.139 216 585.523 215.552C585.917 215.093 586.376 214.741 586.899 214.496C587.432 214.251 588.008 214.128 588.627 214.128C589.267 214.128 589.837 214.261 590.339 214.528C590.84 214.795 591.235 215.163 591.523 215.632C591.821 216.101 591.971 216.651 591.971 217.28C591.971 217.515 591.944 217.76 591.891 218.016C591.837 218.261 591.752 218.523 591.635 218.8C591.528 219.067 591.384 219.349 591.203 219.648C591.021 219.936 590.803 220.24 590.547 220.56C590.301 220.88 590.019 221.216 589.699 221.568L587.155 224.336L586.835 223.6H592.371V225.52H585.283ZM596.976 225.68C596.144 225.68 595.419 225.499 594.8 225.136C594.182 224.763 593.611 224.133 593.088 223.248L594.656 222.256C594.902 222.651 595.152 222.971 595.408 223.216C595.675 223.451 595.942 223.627 596.208 223.744C596.486 223.851 596.779 223.904 597.088 223.904C597.44 223.904 597.76 223.819 598.048 223.648C598.347 223.477 598.582 223.243 598.752 222.944C598.934 222.645 599.024 222.304 599.024 221.92C599.024 221.536 598.95 221.211 598.8 220.944C598.662 220.677 598.454 220.475 598.176 220.336C597.91 220.187 597.584 220.112 597.2 220.112C597.03 220.112 596.848 220.133 596.656 220.176C596.464 220.208 596.262 220.261 596.048 220.336C595.835 220.4 595.6 220.48 595.344 220.576L594.832 219.216L598.016 215.696L598.496 216.16L593.776 216.128V214.288H600.352L600.736 215.056L597.056 219.072L596.576 218.544C596.662 218.501 596.8 218.464 596.992 218.432C597.195 218.389 597.371 218.368 597.52 218.368C597.99 218.368 598.438 218.459 598.864 218.64C599.291 218.811 599.659 219.056 599.968 219.376C600.288 219.696 600.539 220.069 600.72 220.496C600.902 220.912 600.992 221.365 600.992 221.856C600.992 222.592 600.811 223.248 600.448 223.824C600.096 224.389 599.616 224.843 599.008 225.184C598.4 225.515 597.723 225.68 596.976 225.68Z" fill="black"/>
<path d="M634.517 201V195" stroke="black"/>
<path d="M626.805 225.52L626.277 224.208L629.637 220.448C629.829 220.256 630.027 220.037 630.229 219.792C630.432 219.536 630.624 219.275 630.805 219.008C630.997 218.731 631.152 218.464 631.269 218.208C631.387 217.941 631.445 217.696 631.445 217.472C631.445 217.184 631.381 216.933 631.253 216.72C631.136 216.507 630.965 216.341 630.741 216.224C630.517 216.107 630.24 216.048 629.909 216.048C629.621 216.048 629.339 216.133 629.061 216.304C628.795 216.464 628.544 216.699 628.309 217.008C628.085 217.307 627.899 217.664 627.749 218.08L626.181 217.152C626.373 216.533 626.661 216 627.045 215.552C627.44 215.093 627.899 214.741 628.421 214.496C628.955 214.251 629.531 214.128 630.149 214.128C630.789 214.128 631.36 214.261 631.861 214.528C632.363 214.795 632.757 215.163 633.045 215.632C633.344 216.101 633.493 216.651 633.493 217.28C633.493 217.515 633.467 217.76 633.413 218.016C633.36 218.261 633.275 218.523 633.157 218.8C633.051 219.067 632.907 219.349 632.725 219.648C632.544 219.936 632.325 220.24 632.069 220.56C631.824 220.88 631.541 221.216 631.221 221.568L628.677 224.336L628.357 223.6H633.893V225.52H626.805ZM638.531 225.632C637.752 225.632 637.048 225.467 636.419 225.136C635.79 224.795 635.267 224.304 634.851 223.664L636.003 222.416C636.472 222.939 636.894 223.301 637.267 223.504C637.64 223.696 638.051 223.792 638.499 223.792C638.904 223.792 639.267 223.707 639.587 223.536C639.907 223.355 640.163 223.115 640.355 222.816C640.547 222.507 640.643 222.171 640.643 221.808C640.643 221.413 640.552 221.067 640.371 220.768C640.19 220.459 639.944 220.213 639.635 220.032C639.326 219.851 638.974 219.76 638.579 219.76C638.366 219.76 638.163 219.776 637.971 219.808C637.779 219.84 637.555 219.904 637.299 220C637.054 220.096 636.739 220.245 636.355 220.448L635.363 219.104L636.019 214.288H642.211V216.128H637.187L637.651 215.616L637.123 219.168L636.531 218.752C636.67 218.624 636.872 218.501 637.139 218.384C637.416 218.267 637.715 218.171 638.035 218.096C638.355 218.021 638.67 217.984 638.979 217.984C639.672 217.984 640.291 218.144 640.835 218.464C641.379 218.784 641.811 219.227 642.131 219.792C642.451 220.347 642.611 220.987 642.611 221.712C642.611 222.448 642.43 223.115 642.067 223.712C641.715 224.299 641.23 224.768 640.611 225.12C639.992 225.461 639.299 225.632 638.531 225.632Z" fill="black"/>
<path d="M675.759 201V195" stroke="black"/>
<path d="M667.805 225.52L667.277 224.208L670.637 220.448C670.829 220.256 671.026 220.037 671.229 219.792C671.431 219.536 671.623 219.275 671.805 219.008C671.997 218.731 672.151 218.464 672.269 218.208C672.386 217.941 672.445 217.696 672.445 217.472C672.445 217.184 672.381 216.933 672.253 216.72C672.135 216.507 671.965 216.341 671.741 216.224C671.517 216.107 671.239 216.048 670.909 216.048C670.621 216.048 670.338 216.133 670.061 216.304C669.794 216.464 669.543 216.699 669.309 217.008C669.085 217.307 668.898 217.664 668.749 218.08L667.181 217.152C667.373 216.533 667.661 216 668.045 215.552C668.439 215.093 668.898 214.741 669.421 214.496C669.954 214.251 670.53 214.128 671.149 214.128C671.789 214.128 672.359 214.261 672.861 214.528C673.362 214.795 673.757 215.163 674.045 215.632C674.343 216.101 674.493 216.651 674.493 217.28C674.493 217.515 674.466 217.76 674.413 218.016C674.359 218.261 674.274 218.523 674.157 218.8C674.05 219.067 673.906 219.349 673.725 219.648C673.543 219.936 673.325 220.24 673.069 220.56C672.823 220.88 672.541 221.216 672.221 221.568L669.677 224.336L669.357 223.6H674.893V225.52H667.805ZM676.906 225.52L681.498 215.376L681.882 216.16H676.154V214.288H683.21L683.45 215.456L679.066 225.52H676.906Z" fill="black"/>
<path d="M717 201V195" stroke="black"/>
<path d="M705.937 225.52L705.409 224.208L708.769 220.448C708.961 220.256 709.158 220.037 709.361 219.792C709.563 219.536 709.755 219.275 709.937 219.008C710.129 218.731 710.283 218.464 710.401 218.208C710.518 217.941 710.577 217.696 710.577 217.472C710.577 217.184 710.513 216.933 710.385 216.72C710.267 216.507 710.097 216.341 709.873 216.224C709.649 216.107 709.371 216.048 709.041 216.048C708.753 216.048 708.47 216.133 708.193 216.304C707.926 216.464 707.675 216.699 707.441 217.008C707.217 217.307 707.03 217.664 706.881 218.08L705.313 217.152C705.505 216.533 705.793 216 706.177 215.552C706.571 215.093 707.03 214.741 707.553 214.496C708.086 214.251 708.662 214.128 709.281 214.128C709.921 214.128 710.491 214.261 710.993 214.528C711.494 214.795 711.889 215.163 712.177 215.632C712.475 216.101 712.625 216.651 712.625 217.28C712.625 217.515 712.598 217.76 712.545 218.016C712.491 218.261 712.406 218.523 712.289 218.8C712.182 219.067 712.038 219.349 711.857 219.648C711.675 219.936 711.457 220.24 711.201 220.56C710.955 220.88 710.673 221.216 710.353 221.568L707.809 224.336L707.489 223.6H713.025V225.52H705.937ZM716.942 225.52L716.878 225.36L720.27 218.288L720.462 219.488C720.302 219.829 720.105 220.133 719.87 220.4C719.646 220.667 719.385 220.901 719.086 221.104C718.798 221.296 718.5 221.445 718.19 221.552C717.881 221.648 717.572 221.696 717.262 221.696C716.654 221.696 716.094 221.536 715.582 221.216C715.07 220.885 714.66 220.453 714.35 219.92C714.041 219.376 713.886 218.784 713.886 218.144C713.886 217.387 714.062 216.704 714.414 216.096C714.766 215.477 715.241 214.992 715.838 214.64C716.446 214.277 717.129 214.096 717.886 214.096C718.43 214.096 718.942 214.197 719.422 214.4C719.913 214.592 720.334 214.864 720.686 215.216C721.049 215.568 721.332 215.973 721.534 216.432C721.748 216.891 721.854 217.376 721.854 217.888C721.854 218.197 721.822 218.517 721.758 218.848C721.705 219.168 721.614 219.52 721.486 219.904C721.358 220.288 721.193 220.709 720.99 221.168C720.798 221.627 720.564 222.149 720.286 222.736L718.926 225.52H716.942ZM717.726 219.904C718.11 219.904 718.457 219.819 718.766 219.648C719.076 219.467 719.316 219.232 719.486 218.944C719.657 218.656 719.742 218.325 719.742 217.952C719.742 217.568 719.657 217.221 719.486 216.912C719.316 216.603 719.081 216.363 718.782 216.192C718.484 216.011 718.142 215.92 717.758 215.92C717.396 215.92 717.076 216.005 716.798 216.176C716.521 216.347 716.297 216.587 716.126 216.896C715.966 217.195 715.886 217.547 715.886 217.952C715.886 218.293 715.966 218.613 716.126 218.912C716.297 219.211 716.521 219.451 716.798 219.632C717.086 219.813 717.396 219.904 717.726 219.904Z" fill="black"/>
<path d="M119 35V195" stroke="black"/>
<path d="M113 195H119" stroke="black"/>
<path d="M102.946 203.42C102.04 203.42 101.261 203.191 100.61 202.732C99.9703 202.263 99.4743 201.601 99.1223 200.748C98.7809 199.884 98.6103 198.855 98.6103 197.66C98.6103 196.465 98.7809 195.441 99.1223 194.588C99.4743 193.724 99.9703 193.063 100.61 192.604C101.261 192.135 102.04 191.9 102.946 191.9C103.853 191.9 104.632 192.135 105.282 192.604C105.933 193.063 106.429 193.724 106.77 194.588C107.122 195.441 107.298 196.465 107.298 197.66C107.298 198.855 107.122 199.884 106.77 200.748C106.429 201.601 105.933 202.263 105.282 202.732C104.632 203.191 103.853 203.42 102.946 203.42ZM102.946 201.596C103.693 201.596 104.269 201.255 104.674 200.572C105.09 199.879 105.298 198.908 105.298 197.66C105.298 196.401 105.09 195.425 104.674 194.732C104.269 194.039 103.693 193.692 102.946 193.692C102.2 193.692 101.618 194.039 101.202 194.732C100.797 195.425 100.594 196.401 100.594 197.66C100.594 198.908 100.797 199.879 101.202 200.572C101.618 201.255 102.2 201.596 102.946 201.596Z" fill="black"/>
<path d="M81.1866 163.26L80.6586 161.948L84.0186 158.188C84.2106 157.996 84.408 157.777 84.6106 157.532C84.8133 157.276 85.0053 157.015 85.1866 156.748C85.3786 156.471 85.5333 156.204 85.6506 155.948C85.768 155.681 85.8266 155.436 85.8266 155.212C85.8266 154.924 85.7626 154.673 85.6346 154.46C85.5173 154.247 85.3466 154.081 85.1226 153.964C84.8986 153.847 84.6213 153.788 84.2906 153.788C84.0026 153.788 83.72 153.873 83.4426 154.044C83.176 154.204 82.9253 154.439 82.6906 154.748C82.4666 155.047 82.28 155.404 82.1306 155.82L80.5626 154.892C80.7546 154.273 81.0426 153.74 81.4266 153.292C81.8213 152.833 82.28 152.481 82.8026 152.236C83.336 151.991 83.912 151.868 84.5306 151.868C85.1706 151.868 85.7413 152.001 86.2426 152.268C86.744 152.535 87.1386 152.903 87.4266 153.372C87.7253 153.841 87.8746 154.391 87.8746 155.02C87.8746 155.255 87.848 155.5 87.7946 155.756C87.7413 156.001 87.656 156.263 87.5386 156.54C87.432 156.807 87.288 157.089 87.1066 157.388C86.9253 157.676 86.7066 157.98 86.4506 158.3C86.2053 158.62 85.9226 158.956 85.6026 159.308L83.0586 162.076L82.7386 161.34H88.2746V163.26H81.1866ZM92.9123 163.372C92.1336 163.372 91.4296 163.207 90.8003 162.876C90.1709 162.535 89.6483 162.044 89.2323 161.404L90.3843 160.156C90.8536 160.679 91.2749 161.041 91.6483 161.244C92.0216 161.436 92.4323 161.532 92.8802 161.532C93.2856 161.532 93.6483 161.447 93.9683 161.276C94.2883 161.095 94.5443 160.855 94.7363 160.556C94.9283 160.247 95.0243 159.911 95.0243 159.548C95.0243 159.153 94.9336 158.807 94.7523 158.508C94.5709 158.199 94.3256 157.953 94.0163 157.772C93.7069 157.591 93.3549 157.5 92.9603 157.5C92.7469 157.5 92.5443 157.516 92.3523 157.548C92.1603 157.58 91.9363 157.644 91.6803 157.74C91.4349 157.836 91.1203 157.985 90.7363 158.188L89.7443 156.844L90.4003 152.028H96.5923V153.868H91.5683L92.0323 153.356L91.5043 156.908L90.9123 156.492C91.0509 156.364 91.2536 156.241 91.5203 156.124C91.7976 156.007 92.0963 155.911 92.4163 155.836C92.7363 155.761 93.0509 155.724 93.3602 155.724C94.0536 155.724 94.6723 155.884 95.2163 156.204C95.7603 156.524 96.1923 156.967 96.5123 157.532C96.8323 158.087 96.9923 158.727 96.9923 159.452C96.9923 160.188 96.8109 160.855 96.4483 161.452C96.0963 162.039 95.6109 162.508 94.9923 162.86C94.3736 163.201 93.6803 163.372 92.9123 163.372ZM102.946 163.42C102.04 163.42 101.261 163.191 100.61 162.732C99.9703 162.263 99.4743 161.601 99.1223 160.748C98.7809 159.884 98.6103 158.855 98.6103 157.66C98.6103 156.465 98.7809 155.441 99.1223 154.588C99.4743 153.724 99.9703 153.063 100.61 152.604C101.261 152.135 102.04 151.9 102.946 151.9C103.853 151.9 104.632 152.135 105.282 152.604C105.933 153.063 106.429 153.724 106.77 154.588C107.122 155.441 107.298 156.465 107.298 157.66C107.298 158.855 107.122 159.884 106.77 160.748C106.429 161.601 105.933 162.263 105.282 162.732C104.632 163.191 103.853 163.42 102.946 163.42ZM102.946 161.596C103.693 161.596 104.269 161.255 104.674 160.572C105.09 159.879 105.298 158.908 105.298 157.66C105.298 156.401 105.09 155.425 104.674 154.732C104.269 154.039 103.693 153.692 102.946 153.692C102.2 153.692 101.618 154.039 101.202 154.732C100.797 155.425 100.594 156.401 100.594 157.66C100.594 158.908 100.797 159.879 101.202 160.572C101.618 161.255 102.2 161.596 102.946 161.596Z" fill="black"/>
<path d="M113 115H119" stroke="black"/>
<path d="M82.8185 123.372C82.0398 123.372 81.3358 123.207 80.7065 122.876C80.0772 122.535 79.5545 122.044 79.1385 121.404L80.2905 120.156C80.7598 120.679 81.1812 121.041 81.5545 121.244C81.9278 121.436 82.3385 121.532 82.7865 121.532C83.1918 121.532 83.5545 121.447 83.8745 121.276C84.1945 121.095 84.4505 120.855 84.6425 120.556C84.8345 120.247 84.9305 119.911 84.9305 119.548C84.9305 119.153 84.8398 118.807 84.6585 118.508C84.4772 118.199 84.2318 117.953 83.9225 117.772C83.6132 117.591 83.2612 117.5 82.8665 117.5C82.6532 117.5 82.4505 117.516 82.2585 117.548C82.0665 117.58 81.8425 117.644 81.5865 117.74C81.3412 117.836 81.0265 117.985 80.6425 118.188L79.6505 116.844L80.3065 112.028H86.4985V113.868H81.4745L81.9385 113.356L81.4105 116.908L80.8185 116.492C80.9572 116.364 81.1598 116.241 81.4265 116.124C81.7038 116.007 82.0025 115.911 82.3225 115.836C82.6425 115.761 82.9572 115.724 83.2665 115.724C83.9598 115.724 84.5785 115.884 85.1225 116.204C85.6665 116.524 86.0985 116.967 86.4185 117.532C86.7385 118.087 86.8985 118.727 86.8985 119.452C86.8985 120.188 86.7172 120.855 86.3545 121.452C86.0025 122.039 85.5172 122.508 84.8985 122.86C84.2798 123.201 83.5865 123.372 82.8185 123.372ZM92.8525 123.42C91.9458 123.42 91.1672 123.191 90.5165 122.732C89.8765 122.263 89.3805 121.601 89.0285 120.748C88.6872 119.884 88.5165 118.855 88.5165 117.66C88.5165 116.465 88.6872 115.441 89.0285 114.588C89.3805 113.724 89.8765 113.063 90.5165 112.604C91.1672 112.135 91.9458 111.9 92.8525 111.9C93.7592 111.9 94.5378 112.135 95.1885 112.604C95.8392 113.063 96.3352 113.724 96.6765 114.588C97.0285 115.441 97.2045 116.465 97.2045 117.66C97.2045 118.855 97.0285 119.884 96.6765 120.748C96.3352 121.601 95.8392 122.263 95.1885 122.732C94.5378 123.191 93.7592 123.42 92.8525 123.42ZM92.8525 121.596C93.5992 121.596 94.1752 121.255 94.5805 120.572C94.9965 119.879 95.2045 118.908 95.2045 117.66C95.2045 116.401 94.9965 115.425 94.5805 114.732C94.1752 114.039 93.5992 113.692 92.8525 113.692C92.1058 113.692 91.5245 114.039 91.1085 114.732C90.7032 115.425 90.5005 116.401 90.5005 117.66C90.5005 118.908 90.7032 119.879 91.1085 120.572C91.5245 121.255 92.1058 121.596 92.8525 121.596ZM102.946 123.42C102.04 123.42 101.261 123.191 100.61 122.732C99.9703 122.263 99.4743 121.601 99.1223 120.748C98.7809 119.884 98.6103 118.855 98.6103 117.66C98.6103 116.465 98.7809 115.441 99.1223 114.588C99.4743 113.724 99.9703 113.063 100.61 112.604C101.261 112.135 102.04 111.9 102.946 111.9C103.853 111.9 104.632 112.135 105.282 112.604C105.933 113.063 106.429 113.724 106.77 114.588C107.122 115.441 107.298 116.465 107.298 117.66C107.298 118.855 107.122 119.884 106.77 120.748C106.429 121.601 105.933 122.263 105.282 122.732C104.632 123.191 103.853 123.42 102.946 123.42ZM102.946 121.596C103.693 121.596 104.269 121.255 104.674 120.572C105.09 119.879 105.298 118.908 105.298 117.66C105.298 116.401 105.09 115.425 104.674 114.732C104.269 114.039 103.693 113.692 102.946 113.692C102.2 113.692 101.618 114.039 101.202 114.732C100.797 115.425 100.594 116.401 100.594 117.66C100.594 118.908 100.797 119.879 101.202 120.572C101.618 121.255 102.2 121.596 102.946 121.596Z" fill="black"/>
<path d="M113 75H119" stroke="black"/>
<path d="M81.5539 83.26L86.1459 73.116L86.5299 73.9H80.8019V72.028H87.8579L88.0979 73.196L83.7139 83.26H81.5539ZM92.9123 83.372C92.1336 83.372 91.4296 83.2067 90.8003 82.876C90.1709 82.5347 89.6483 82.044 89.2323 81.404L90.3843 80.156C90.8536 80.6787 91.2749 81.0413 91.6483 81.244C92.0216 81.436 92.4323 81.532 92.8802 81.532C93.2856 81.532 93.6483 81.4467 93.9683 81.276C94.2883 81.0947 94.5443 80.8547 94.7363 80.556C94.9283 80.2467 95.0243 79.9107 95.0243 79.548C95.0243 79.1533 94.9336 78.8067 94.7523 78.508C94.5709 78.1987 94.3256 77.9533 94.0163 77.772C93.7069 77.5907 93.3549 77.5 92.9603 77.5C92.7469 77.5 92.5443 77.516 92.3523 77.548C92.1603 77.58 91.9363 77.644 91.6803 77.74C91.4349 77.836 91.1203 77.9853 90.7363 78.188L89.7443 76.844L90.4003 72.028H96.5923V73.868H91.5683L92.0323 73.356L91.5043 76.908L90.9123 76.492C91.0509 76.364 91.2536 76.2413 91.5203 76.124C91.7976 76.0067 92.0963 75.9107 92.4163 75.836C92.7363 75.7613 93.0509 75.724 93.3602 75.724C94.0536 75.724 94.6723 75.884 95.2163 76.204C95.7603 76.524 96.1923 76.9667 96.5123 77.532C96.8323 78.0867 96.9923 78.7267 96.9923 79.452C96.9923 80.188 96.8109 80.8547 96.4483 81.452C96.0963 82.0387 95.6109 82.508 94.9923 82.86C94.3736 83.2013 93.6803 83.372 92.9123 83.372ZM102.946 83.42C102.04 83.42 101.261 83.1907 100.61 82.732C99.9703 82.2627 99.4743 81.6013 99.1223 80.748C98.7809 79.884 98.6103 78.8547 98.6103 77.66C98.6103 76.4653 98.7809 75.4413 99.1223 74.588C99.4743 73.724 99.9703 73.0627 100.61 72.604C101.261 72.1347 102.04 71.9 102.946 71.9C103.853 71.9 104.632 72.1347 105.282 72.604C105.933 73.0627 106.429 73.724 106.77 74.588C107.122 75.4413 107.298 76.4653 107.298 77.66C107.298 78.8547 107.122 79.884 106.77 80.748C106.429 81.6013 105.933 82.2627 105.282 82.732C104.632 83.1907 103.853 83.42 102.946 83.42ZM102.946 81.596C103.693 81.596 104.269 81.2547 104.674 80.572C105.09 79.8787 105.298 78.908 105.298 77.66C105.298 76.4013 105.09 75.4253 104.674 74.732C104.269 74.0387 103.693 73.692 102.946 73.692C102.2 73.692 101.618 74.0387 101.202 74.732C100.797 75.4253 100.594 76.4013 100.594 77.66C100.594 78.908 100.797 79.8787 101.202 80.572C101.618 81.2547 102.2 81.596 102.946 81.596Z" fill="black"/>
<path d="M113 35H119" stroke="black"/>
<path d="M72.7994 46.6752V37.5872L73.3914 38.3552L71.1194 39.5072L70.6554 37.6832L73.7114 36.0992H74.8634V46.6752H72.7994ZM70.9274 47.4592V45.5392H76.7834V47.4592H70.9274ZM82.7588 47.6192C81.8521 47.6192 81.0734 47.3899 80.4228 46.9312C79.7828 46.4619 79.2868 45.8006 78.9348 44.9472C78.5934 44.0832 78.4228 43.0539 78.4228 41.8592C78.4228 40.6646 78.5934 39.6406 78.9348 38.7872C79.2868 37.9232 79.7828 37.2619 80.4228 36.8032C81.0734 36.3339 81.8521 36.0992 82.7588 36.0992C83.6654 36.0992 84.4441 36.3339 85.0948 36.8032C85.7454 37.2619 86.2414 37.9232 86.5828 38.7872C86.9348 39.6406 87.1108 40.6646 87.1108 41.8592C87.1108 43.0539 86.9348 44.0832 86.5828 44.9472C86.2414 45.8006 85.7454 46.4619 85.0948 46.9312C84.4441 47.3899 83.6654 47.6192 82.7588 47.6192ZM82.7588 45.7952C83.5054 45.7952 84.0814 45.4539 84.4868 44.7712C84.9028 44.0779 85.1108 43.1072 85.1108 41.8592C85.1108 40.6006 84.9028 39.6246 84.4868 38.9312C84.0814 38.2379 83.5054 37.8912 82.7588 37.8912C82.0121 37.8912 81.4308 38.2379 81.0148 38.9312C80.6094 39.6246 80.4068 40.6006 80.4068 41.8592C80.4068 43.1072 80.6094 44.0779 81.0148 44.7712C81.4308 45.4539 82.0121 45.7952 82.7588 45.7952ZM92.8525 47.6192C91.9458 47.6192 91.1672 47.3899 90.5165 46.9312C89.8765 46.4619 89.3805 45.8006 89.0285 44.9472C88.6872 44.0832 88.5165 43.0539 88.5165 41.8592C88.5165 40.6646 88.6872 39.6406 89.0285 38.7872C89.3805 37.9232 89.8765 37.2619 90.5165 36.8032C91.1672 36.3339 91.9458 36.0992 92.8525 36.0992C93.7592 36.0992 94.5378 36.3339 95.1885 36.8032C95.8392 37.2619 96.3352 37.9232 96.6765 38.7872C97.0285 39.6406 97.2045 40.6646 97.2045 41.8592C97.2045 43.0539 97.0285 44.0832 96.6765 44.9472C96.3352 45.8006 95.8392 46.4619 95.1885 46.9312C94.5378 47.3899 93.7592 47.6192 92.8525 47.6192ZM92.8525 45.7952C93.5992 45.7952 94.1752 45.4539 94.5805 44.7712C94.9965 44.0779 95.2045 43.1072 95.2045 41.8592C95.2045 40.6006 94.9965 39.6246 94.5805 38.9312C94.1752 38.2379 93.5992 37.8912 92.8525 37.8912C92.1058 37.8912 91.5245 38.2379 91.1085 38.9312C90.7032 39.6246 90.5005 40.6006 90.5005 41.8592C90.5005 43.1072 90.7032 44.0779 91.1085 44.7712C91.5245 45.4539 92.1058 45.7952 92.8525 45.7952ZM102.946 47.6192C102.04 47.6192 101.261 47.3899 100.61 46.9312C99.9703 46.4619 99.4743 45.8006 99.1223 44.9472C98.7809 44.0832 98.6103 43.0539 98.6103 41.8592C98.6103 40.6646 98.7809 39.6406 99.1223 38.7872C99.4743 37.9232 99.9703 37.2619 100.61 36.8032C101.261 36.3339 102.04 36.0992 102.946 36.0992C103.853 36.0992 104.632 36.3339 105.282 36.8032C105.933 37.2619 106.429 37.9232 106.77 38.7872C107.122 39.6406 107.298 40.6646 107.298 41.8592C107.298 43.0539 107.122 44.0832 106.77 44.9472C106.429 45.8006 105.933 46.4619 105.282 46.9312C104.632 47.3899 103.853 47.6192 102.946 47.6192ZM102.946 45.7952C103.693 45.7952 104.269 45.4539 104.674 44.7712C105.09 44.0779 105.298 43.1072 105.298 41.8592C105.298 40.6006 105.09 39.6246 104.674 38.9312C104.269 38.2379 103.693 37.8912 102.946 37.8912C102.2 37.8912 101.618 38.2379 101.202 38.9312C100.797 39.6246 100.594 40.6006 100.594 41.8592C100.594 43.1072 100.797 44.0779 101.202 44.7712C101.618 45.4539 102.2 45.7952 102.946 45.7952Z" fill="black"/>
<path d="M119 195H717" stroke="#CCCCCC"/>
<path d="M119 155H717" stroke="#CCCCCC"/>
<path d="M119 115H717" stroke="#CCCCCC"/>
<path d="M119 75H717" stroke="#CCCCCC"/>
<path d="M119 35H717" stroke="#CCCCCC"/>
<path d="M119 35V195" stroke="#CCCCCC"/>
<path d="M139.621 35V195" stroke="#CCCCCC"/>
<path d="M160.241 35V195" stroke="#CCCCCC"/>
<path d="M180.862 35V195" stroke="#CCCCCC"/>
<path d="M201.483 35V195" stroke="#CCCCCC"/>
<path d="M222.103 35V195" stroke="#CCCCCC"/>
<path d="M242.724 35V195" stroke="#CCCCCC"/>
<path d="M263.345 35V195" stroke="#CCCCCC"/>
<path d="M283.966 35V195" stroke="#CCCCCC"/>
<path d="M304.586 35V195" stroke="#CCCCCC"/>
<path d="M345.828 35V195" stroke="#CCCCCC"/>
<path d="M387.069 35V195" stroke="#CCCCCC"/>
<path d="M428.31 35V195" stroke="#CCCCCC"/>
<path d="M469.552 35V195" stroke="#CCCCCC"/>
<path d="M510.793 35V195" stroke="#CCCCCC"/>
<path d="M552.034 35V195" stroke="#CCCCCC"/>
<path d="M593.276 35V195" stroke="#CCCCCC"/>
<path d="M634.517 35V195" stroke="#CCCCCC"/>
<path d="M675.759 35V195" stroke="#CCCCCC"/>
<path d="M717 35V195" stroke="#CCCCCC"/>
<path d="M119 59.96L139.621 138.04L160.241 167L180.862 35L201.483 193.72L222.103 94.68L242.724 171.96L263.345 191.96L283.966 103L304.586 125.24L325.207 154.84L345.828 136.44L366.448 169.56L387.069 75.48L407.69 179.64L428.31 43.64L448.931 84.44L469.552 54.68L490.172 38.36L510.793 181.4L531.414 110.2L552.034 165.72L572.655 54.52L593.276 164.76L613.897 164.6L634.517 187.32L655.138 54.68L675.759 148.28L696.379 82.68L717 173.08V195H696.379H675.759H655.138H634.517H613.897H593.276H572.655H552.034H531.414H510.793H490.172H469.552H448.931H428.31H407.69H387.069H366.448H345.828H325.207H304.586H283.966H263.345H242.724H222.103H201.483H180.862H160.241H139.621H119V59.96Z" fill="#B38EBC" fill-opacity="0.6"/>
</g>
<path d="M54 184.6H44.72V187.8H42.8V179.224H44.72V182.52H54V184.6ZM54.16 175.273C54.16 176.116 53.9733 176.868 53.6 177.529C53.216 178.191 52.6933 178.713 52.032 179.097C51.3707 179.481 50.6187 179.673 49.776 179.673C48.9333 179.673 48.1813 179.481 47.52 179.097C46.8587 178.713 46.3413 178.191 45.968 177.529C45.584 176.868 45.392 176.116 45.392 175.273C45.392 174.441 45.584 173.695 45.968 173.033C46.3413 172.372 46.8587 171.855 47.52 171.481C48.1813 171.097 48.9333 170.905 49.776 170.905C50.6187 170.905 51.3707 171.097 52.032 171.481C52.6933 171.855 53.216 172.372 53.6 173.033C53.9733 173.695 54.16 174.441 54.16 175.273ZM52.416 175.273C52.416 174.815 52.2987 174.409 52.064 174.057C51.8293 173.695 51.5147 173.412 51.12 173.209C50.7253 172.996 50.2773 172.895 49.776 172.905C49.264 172.895 48.8107 172.996 48.416 173.209C48.0213 173.412 47.712 173.695 47.488 174.057C47.2533 174.409 47.136 174.815 47.136 175.273C47.136 175.732 47.2533 176.148 47.488 176.521C47.712 176.884 48.0267 177.167 48.432 177.369C48.8267 177.572 49.2747 177.673 49.776 177.673C50.2773 177.673 50.7253 177.572 51.12 177.369C51.5147 177.167 51.8293 176.884 52.064 176.521C52.2987 176.148 52.416 175.732 52.416 175.273ZM54 168.233H43.424V166.265H54V168.233ZM47.392 169.897H45.568V164.425H47.392V169.897ZM54.16 159.82C54.16 160.514 53.968 161.143 53.584 161.708C53.2 162.274 52.6773 162.727 52.016 163.068C51.3547 163.41 50.6027 163.58 49.76 163.58C48.9173 163.58 48.1653 163.41 47.504 163.068C46.8427 162.727 46.3253 162.263 45.952 161.676C45.5787 161.09 45.392 160.428 45.392 159.692C45.392 159.266 45.456 158.876 45.584 158.524C45.7013 158.172 45.872 157.863 46.096 157.596C46.32 157.33 46.576 157.111 46.864 156.94C47.152 156.759 47.4613 156.636 47.792 156.572L47.68 157.004H45.568V155.02H54V157.02H51.984L51.904 156.556C52.192 156.631 52.4747 156.77 52.752 156.972C53.0187 157.164 53.2587 157.41 53.472 157.708C53.6747 157.996 53.84 158.322 53.968 158.684C54.096 159.036 54.16 159.415 54.16 159.82ZM52.416 159.276C52.416 158.818 52.304 158.412 52.08 158.06C51.856 157.708 51.5467 157.436 51.152 157.244C50.7467 157.042 50.2827 156.94 49.76 156.94C49.248 156.94 48.7947 157.042 48.4 157.244C48.0053 157.436 47.696 157.708 47.472 158.06C47.248 158.412 47.136 158.818 47.136 159.276C47.136 159.735 47.248 160.14 47.472 160.492C47.696 160.834 48.0053 161.1 48.4 161.292C48.7947 161.484 49.248 161.58 49.76 161.58C50.2827 161.58 50.7467 161.484 51.152 161.292C51.5467 161.1 51.856 160.834 52.08 160.492C52.304 160.14 52.416 159.735 52.416 159.276ZM54 152.723H42.16V150.739H54V152.723ZM57.52 143.723H45.568V141.787L47.488 141.755L47.344 142.091C47.0133 142.027 46.704 141.846 46.416 141.547C46.1173 141.248 45.8773 140.886 45.696 140.459C45.5147 140.022 45.424 139.568 45.424 139.099C45.424 138.352 45.6107 137.691 45.984 137.115C46.3573 136.528 46.8693 136.07 47.52 135.739C48.1707 135.398 48.9227 135.227 49.776 135.227C50.6187 135.227 51.3707 135.398 52.032 135.739C52.6827 136.07 53.2 136.528 53.584 137.115C53.9573 137.691 54.144 138.342 54.144 139.067C54.144 139.558 54.048 140.032 53.856 140.491C53.664 140.939 53.4133 141.323 53.104 141.643C52.7947 141.952 52.4693 142.144 52.128 142.219L51.904 141.739H57.52V143.723ZM52.4 139.467C52.4 139.019 52.288 138.619 52.064 138.267C51.84 137.915 51.5307 137.643 51.136 137.451C50.7413 137.248 50.288 137.147 49.776 137.147C49.264 137.147 48.816 137.243 48.432 137.435C48.0373 137.627 47.728 137.899 47.504 138.251C47.28 138.603 47.168 139.008 47.168 139.467C47.168 139.936 47.28 140.347 47.504 140.699C47.7173 141.04 48.0213 141.312 48.416 141.515C48.8107 141.718 49.264 141.819 49.776 141.819C50.288 141.819 50.7413 141.718 51.136 141.515C51.5307 141.312 51.84 141.04 52.064 140.699C52.288 140.347 52.4 139.936 52.4 139.467ZM54.16 130.289C54.16 130.982 53.968 131.612 53.584 132.177C53.2 132.742 52.6773 133.196 52.016 133.537C51.3547 133.878 50.6027 134.049 49.76 134.049C48.9173 134.049 48.1653 133.878 47.504 133.537C46.8427 133.196 46.3253 132.732 45.952 132.145C45.5787 131.558 45.392 130.897 45.392 130.161C45.392 129.734 45.456 129.345 45.584 128.993C45.7013 128.641 45.872 128.332 46.096 128.065C46.32 127.798 46.576 127.58 46.864 127.409C47.152 127.228 47.4613 127.105 47.792 127.041L47.68 127.473H45.568V125.489H54V127.489H51.984L51.904 127.025C52.192 127.1 52.4747 127.238 52.752 127.441C53.0187 127.633 53.2587 127.878 53.472 128.177C53.6747 128.465 53.84 128.79 53.968 129.153C54.096 129.505 54.16 129.884 54.16 130.289ZM52.416 129.745C52.416 129.286 52.304 128.881 52.08 128.529C51.856 128.177 51.5467 127.905 51.152 127.713C50.7467 127.51 50.2827 127.409 49.76 127.409C49.248 127.409 48.7947 127.51 48.4 127.713C48.0053 127.905 47.696 128.177 47.472 128.529C47.248 128.881 47.136 129.286 47.136 129.745C47.136 130.204 47.248 130.609 47.472 130.961C47.696 131.302 48.0053 131.569 48.4 131.761C48.7947 131.953 49.248 132.049 49.76 132.049C50.2827 132.049 50.7467 131.953 51.152 131.761C51.5467 131.569 51.856 131.302 52.08 130.961C52.304 130.609 52.416 130.204 52.416 129.745ZM57.68 119.415C57.68 120.045 57.584 120.674 57.392 121.303C57.2 121.922 56.9493 122.423 56.64 122.807L55.184 122.103C55.344 121.879 55.4827 121.629 55.6 121.351C55.7173 121.074 55.808 120.781 55.872 120.471C55.936 120.151 55.968 119.837 55.968 119.527C55.968 118.962 55.8773 118.493 55.696 118.119C55.5253 117.735 55.2587 117.447 54.896 117.255C54.544 117.063 54.1013 116.967 53.568 116.967H52.016L52.128 116.679C52.4587 116.743 52.7733 116.919 53.072 117.207C53.3707 117.495 53.616 117.858 53.808 118.295C53.9893 118.733 54.08 119.181 54.08 119.639C54.08 120.439 53.8933 121.149 53.52 121.767C53.1467 122.375 52.64 122.861 52 123.223C51.3493 123.575 50.6027 123.751 49.76 123.751C48.9173 123.751 48.1707 123.575 47.52 123.223C46.8587 122.871 46.3413 122.391 45.968 121.783C45.584 121.165 45.392 120.471 45.392 119.703C45.392 119.383 45.4293 119.074 45.504 118.775C45.5787 118.477 45.6853 118.205 45.824 117.959C45.9627 117.703 46.1173 117.474 46.288 117.271C46.4587 117.069 46.64 116.903 46.832 116.775C47.024 116.647 47.2107 116.567 47.392 116.535L47.52 116.951L45.568 116.919V114.983H53.424C54.1067 114.983 54.7093 115.085 55.232 115.287C55.7547 115.49 56.1973 115.783 56.56 116.167C56.9333 116.551 57.2107 117.015 57.392 117.559C57.584 118.103 57.68 118.722 57.68 119.415ZM52.4 119.335C52.4 118.855 52.288 118.434 52.064 118.071C51.84 117.698 51.5307 117.41 51.136 117.207C50.7413 117.005 50.288 116.903 49.776 116.903C49.2533 116.903 48.7947 117.01 48.4 117.223C47.9947 117.426 47.68 117.709 47.456 118.071C47.232 118.434 47.12 118.855 47.12 119.335C47.12 119.815 47.2373 120.237 47.472 120.599C47.696 120.962 48.0107 121.25 48.416 121.463C48.8107 121.666 49.264 121.767 49.776 121.767C50.2773 121.767 50.7307 121.666 51.136 121.463C51.5307 121.25 51.84 120.962 52.064 120.599C52.288 120.237 52.4 119.815 52.4 119.335ZM54.16 108.755C54.16 109.641 53.9733 110.425 53.6 111.107C53.2267 111.779 52.72 112.307 52.08 112.691C51.4293 113.065 50.688 113.251 49.856 113.251C49.1947 113.251 48.592 113.145 48.048 112.931C47.504 112.718 47.0347 112.425 46.64 112.051C46.2347 111.667 45.9253 111.214 45.712 110.691C45.488 110.158 45.376 109.577 45.376 108.947C45.376 108.393 45.4827 107.875 45.696 107.395C45.9093 106.915 46.2027 106.499 46.576 106.147C46.9387 105.795 47.376 105.529 47.888 105.347C48.3893 105.155 48.9387 105.065 49.536 105.075L50.224 105.091V111.923L48.88 112.291V106.739L49.152 106.995H48.8C48.4693 107.027 48.1813 107.134 47.936 107.315C47.68 107.497 47.4827 107.731 47.344 108.019C47.1947 108.297 47.12 108.606 47.12 108.947C47.12 109.47 47.2213 109.913 47.424 110.275C47.6267 110.627 47.92 110.894 48.304 111.075C48.6773 111.257 49.1467 111.347 49.712 111.347C50.256 111.347 50.7307 111.235 51.136 111.011C51.5413 110.777 51.856 110.451 52.08 110.035C52.2933 109.609 52.4 109.113 52.4 108.547C52.4 108.153 52.336 107.79 52.208 107.459C52.08 107.129 51.8507 106.771 51.52 106.387L52.88 105.411C53.1467 105.699 53.376 106.03 53.568 106.403C53.7493 106.766 53.8933 107.15 54 107.555C54.1067 107.961 54.16 108.361 54.16 108.755ZM54 95.9252L45.568 99.4772V97.3332L51.872 94.9332L51.984 95.3492L45.568 92.8212V90.7252L54 94.4532V95.9252ZM54 89.0615H45.568V87.0935H54V89.0615ZM43.776 88.1015C43.776 88.4962 43.68 88.8055 43.488 89.0295C43.2853 89.2428 43.0027 89.3495 42.64 89.3495C42.2987 89.3495 42.0213 89.2375 41.808 89.0135C41.5947 88.7895 41.488 88.4855 41.488 88.1015C41.488 87.6962 41.5893 87.3868 41.792 87.1735C41.984 86.9495 42.2667 86.8375 42.64 86.8375C42.9707 86.8375 43.2427 86.9495 43.456 87.1735C43.6693 87.3975 43.776 87.7068 43.776 88.1015ZM54.16 81.782C54.16 82.5287 54.0373 83.2007 53.792 83.798C53.536 84.3847 53.1733 84.8647 52.704 85.238L51.6 83.958C51.9627 83.638 52.224 83.2807 52.384 82.886C52.544 82.4913 52.624 82.0753 52.624 81.638C52.624 81.4567 52.6027 81.2967 52.56 81.158C52.5173 81.0087 52.4533 80.8807 52.368 80.774C52.2827 80.6673 52.1867 80.5873 52.08 80.534C51.9627 80.47 51.8347 80.438 51.696 80.438C51.44 80.438 51.2373 80.534 51.088 80.726C51.0133 80.8327 50.9333 81.0033 50.848 81.238C50.7627 81.462 50.6773 81.7553 50.592 82.118C50.4427 82.694 50.272 83.174 50.08 83.558C49.8773 83.942 49.6533 84.2407 49.408 84.454C49.2053 84.6353 48.976 84.774 48.72 84.87C48.464 84.9553 48.1867 84.998 47.888 84.998C47.5147 84.998 47.1787 84.918 46.88 84.758C46.5707 84.5873 46.304 84.358 46.08 84.07C45.856 83.782 45.6853 83.446 45.568 83.062C45.4507 82.678 45.392 82.278 45.392 81.862C45.392 81.4353 45.4453 81.0247 45.552 80.63C45.6587 80.2247 45.8133 79.8513 46.016 79.51C46.208 79.158 46.4427 78.8593 46.72 78.614L47.92 79.702C47.728 79.9047 47.5573 80.1287 47.408 80.374C47.2587 80.6087 47.1413 80.8487 47.056 81.094C46.96 81.3393 46.912 81.5687 46.912 81.782C46.912 81.9847 46.9333 82.166 46.976 82.326C47.008 82.486 47.0613 82.6193 47.136 82.726C47.2107 82.8327 47.3067 82.918 47.424 82.982C47.5307 83.0353 47.6587 83.062 47.808 83.062C47.936 83.0513 48.0587 83.0193 48.176 82.966C48.2827 82.902 48.3733 82.8167 48.448 82.71C48.5227 82.5927 48.608 82.4167 48.704 82.182C48.8 81.9473 48.8907 81.6433 48.976 81.27C49.1147 80.7473 49.2693 80.31 49.44 79.958C49.6107 79.606 49.808 79.3287 50.032 79.126C50.224 78.9233 50.448 78.7793 50.704 78.694C50.96 78.6087 51.2427 78.566 51.552 78.566C52.0533 78.566 52.5013 78.71 52.896 78.998C53.2907 79.2753 53.6 79.6593 53.824 80.15C54.048 80.63 54.16 81.174 54.16 81.782ZM54 76.6084H45.568V74.6404H54V76.6084ZM43.776 75.6484C43.776 76.043 43.68 76.3524 43.488 76.5764C43.2853 76.7897 43.0027 76.8964 42.64 76.8964C42.2987 76.8964 42.0213 76.7844 41.808 76.5604C41.5947 76.3364 41.488 76.0324 41.488 75.6484C41.488 75.243 41.5893 74.9337 41.792 74.7204C41.984 74.4964 42.2667 74.3844 42.64 74.3844C42.9707 74.3844 43.2427 74.4964 43.456 74.7204C43.6693 74.9444 43.776 75.2537 43.776 75.6484ZM54 71.2329H43.424V69.2649H54V71.2329ZM47.392 72.8969H45.568V67.4249H47.392V72.8969ZM54.16 62.7976C54.16 63.5443 54.0373 64.2163 53.792 64.8136C53.536 65.4003 53.1733 65.8803 52.704 66.2536L51.6 64.9736C51.9627 64.6536 52.224 64.2963 52.384 63.9016C52.544 63.507 52.624 63.091 52.624 62.6536C52.624 62.4723 52.6027 62.3123 52.56 62.1736C52.5173 62.0243 52.4533 61.8963 52.368 61.7896C52.2827 61.683 52.1867 61.603 52.08 61.5496C51.9627 61.4856 51.8347 61.4536 51.696 61.4536C51.44 61.4536 51.2373 61.5496 51.088 61.7416C51.0133 61.8483 50.9333 62.019 50.848 62.2536C50.7627 62.4776 50.6773 62.771 50.592 63.1336C50.4427 63.7096 50.272 64.1896 50.08 64.5736C49.8773 64.9576 49.6533 65.2563 49.408 65.4696C49.2053 65.651 48.976 65.7896 48.72 65.8856C48.464 65.971 48.1867 66.0136 47.888 66.0136C47.5147 66.0136 47.1787 65.9336 46.88 65.7736C46.5707 65.603 46.304 65.3736 46.08 65.0856C45.856 64.7976 45.6853 64.4616 45.568 64.0776C45.4507 63.6936 45.392 63.2936 45.392 62.8776C45.392 62.451 45.4453 62.0403 45.552 61.6456C45.6587 61.2403 45.8133 60.867 46.016 60.5256C46.208 60.1736 46.4427 59.875 46.72 59.6296L47.92 60.7176C47.728 60.9203 47.5573 61.1443 47.408 61.3896C47.2587 61.6243 47.1413 61.8643 47.056 62.1096C46.96 62.355 46.912 62.5843 46.912 62.7976C46.912 63.0003 46.9333 63.1816 46.976 63.3416C47.008 63.5016 47.0613 63.635 47.136 63.7416C47.2107 63.8483 47.3067 63.9336 47.424 63.9976C47.5307 64.051 47.6587 64.0776 47.808 64.0776C47.936 64.067 48.0587 64.035 48.176 63.9816C48.2827 63.9176 48.3733 63.8323 48.448 63.7256C48.5227 63.6083 48.608 63.4323 48.704 63.1976C48.8 62.963 48.8907 62.659 48.976 62.2856C49.1147 61.763 49.2693 61.3256 49.44 60.9736C49.6107 60.6216 49.808 60.3443 50.032 60.1416C50.224 59.939 50.448 59.795 50.704 59.7096C50.96 59.6243 51.2427 59.5816 51.552 59.5816C52.0533 59.5816 52.5013 59.7256 52.896 60.0136C53.2907 60.291 53.6 60.675 53.824 61.1656C54.048 61.6456 54.16 62.1896 54.16 62.7976Z" fill="#A388EE"/>
<path d="M684.186 256.263L684.214 245.063L688.71 245.074C689.521 245.076 690.251 245.212 690.901 245.48C691.562 245.748 692.126 246.134 692.594 246.636C693.073 247.139 693.434 247.732 693.678 248.415C693.932 249.098 694.058 249.856 694.056 250.688C694.054 251.52 693.924 252.282 693.666 252.975C693.419 253.657 693.061 254.248 692.59 254.748C692.119 255.238 691.553 255.615 690.891 255.88C690.229 256.145 689.493 256.276 688.682 256.274L684.186 256.263ZM686.27 254.652L686.111 254.348L688.607 254.354C689.13 254.355 689.594 254.271 690 254.102C690.416 253.932 690.769 253.688 691.057 253.368C691.346 253.049 691.566 252.666 691.716 252.218C691.867 251.76 691.943 251.248 691.944 250.683C691.946 250.117 691.872 249.61 691.724 249.162C691.576 248.703 691.353 248.313 691.055 247.992C690.768 247.672 690.422 247.425 690.017 247.254C689.612 247.082 689.148 246.996 688.625 246.994L686.081 246.988L686.29 246.716L686.27 254.652ZM699.127 256.461C698.434 256.459 697.805 256.265 697.241 255.88C696.676 255.494 696.224 254.971 695.884 254.308C695.545 253.646 695.376 252.894 695.378 252.051C695.38 251.208 695.553 250.457 695.896 249.796C696.239 249.136 696.704 248.62 697.292 248.248C697.879 247.876 698.541 247.691 699.277 247.693C699.704 247.694 700.093 247.759 700.445 247.888C700.796 248.006 701.105 248.177 701.371 248.402C701.637 248.627 701.855 248.883 702.025 249.172C702.206 249.46 702.328 249.77 702.391 250.101L701.959 249.988L701.965 247.876L703.949 247.881L703.927 256.313L701.927 256.308L701.933 254.292L702.397 254.213C702.321 254.501 702.182 254.783 701.979 255.06C701.786 255.326 701.54 255.565 701.241 255.778C700.952 255.98 700.627 256.144 700.264 256.271C699.911 256.398 699.532 256.462 699.127 256.461ZM699.675 254.718C700.134 254.719 700.54 254.608 700.892 254.385C701.245 254.162 701.518 253.853 701.711 253.459C701.914 253.054 702.017 252.59 702.018 252.068C702.019 251.556 701.919 251.102 701.718 250.707C701.526 250.312 701.255 250.002 700.904 249.777C700.552 249.552 700.147 249.439 699.689 249.438C699.23 249.437 698.824 249.548 698.472 249.771C698.13 249.994 697.863 250.303 697.67 250.697C697.477 251.091 697.379 251.544 697.378 252.056C697.377 252.579 697.472 253.043 697.663 253.449C697.854 253.844 698.12 254.154 698.46 254.379C698.812 254.604 699.217 254.717 699.675 254.718ZM707.292 260.001L709.095 255.861L709.107 257.173L704.971 247.883L707.243 247.889L709.549 253.399C709.623 253.537 709.697 253.724 709.772 253.959C709.846 254.183 709.909 254.407 709.962 254.632L709.562 254.759C709.637 254.556 709.717 254.343 709.803 254.119C709.889 253.885 709.97 253.645 710.045 253.4L712.043 247.901L714.331 247.907L710.79 256.33L709.34 260.006L707.292 260.001ZM718.197 256.508C717.45 256.506 716.778 256.382 716.181 256.135C715.595 255.878 715.116 255.514 714.744 255.044L716.027 253.943C716.346 254.306 716.703 254.568 717.097 254.729C717.491 254.89 717.907 254.971 718.344 254.973C718.526 254.973 718.686 254.952 718.825 254.91C718.974 254.868 719.102 254.804 719.209 254.719C719.316 254.634 719.396 254.538 719.45 254.431C719.514 254.314 719.546 254.186 719.547 254.048C719.547 253.792 719.452 253.589 719.26 253.439C719.154 253.364 718.983 253.284 718.749 253.198C718.525 253.112 718.232 253.026 717.869 252.939C717.294 252.789 716.814 252.617 716.431 252.424C716.047 252.22 715.749 251.995 715.536 251.75C715.356 251.546 715.218 251.317 715.122 251.061C715.037 250.804 714.995 250.527 714.996 250.228C714.997 249.855 715.078 249.519 715.239 249.221C715.41 248.912 715.64 248.646 715.929 248.423C716.217 248.199 716.554 248.029 716.938 247.913C717.322 247.797 717.722 247.739 718.138 247.74C718.565 247.741 718.976 247.795 719.37 247.903C719.775 248.011 720.148 248.166 720.489 248.37C720.84 248.563 721.139 248.798 721.383 249.076L720.292 250.273C720.09 250.081 719.866 249.91 719.621 249.76C719.387 249.61 719.147 249.492 718.902 249.406C718.657 249.309 718.428 249.261 718.215 249.26C718.012 249.26 717.831 249.281 717.671 249.323C717.51 249.354 717.377 249.407 717.27 249.482C717.163 249.556 717.078 249.652 717.013 249.769C716.96 249.876 716.933 250.004 716.932 250.153C716.943 250.281 716.974 250.404 717.028 250.521C717.091 250.628 717.176 250.719 717.283 250.794C717.4 250.869 717.576 250.955 717.81 251.051C718.045 251.148 718.348 251.239 718.722 251.326C719.244 251.465 719.681 251.621 720.032 251.793C720.384 251.964 720.661 252.162 720.863 252.387C721.065 252.579 721.208 252.804 721.293 253.06C721.378 253.316 721.42 253.599 721.419 253.908C721.418 254.41 721.273 254.857 720.984 255.251C720.705 255.645 720.321 255.954 719.829 256.176C719.349 256.399 718.805 256.51 718.197 256.508Z" fill="#A388EE"/>
</g>
<defs>
<filter id="filter0_d_5_316" x="0" y="0" width="761" height="288" filterUnits="userSpaceOnUse" color-interpolation-filters="sRGB">
<feFlood flood-opacity="0" result="BackgroundImageFix"/>
<feColorMatrix in="SourceAlpha" type="matrix" values="0 0 0 0 0 0 0 0 0 0 0 0 0 0 0 0 0 0 127 0" result="hardAlpha"/>
<feOffset dy="4"/>
<feGaussianBlur stdDeviation="2"/>
<feComposite in2="hardAlpha" operator="out"/>
<feColorMatrix type="matrix" values="0 0 0 0 0 0 0 0 0 0 0 0 0 0 0 0 0 0 0.25 0"/>
<feBlend mode="normal" in2="BackgroundImageFix" result="effect1_dropShadow_5_316"/>
<feBlend mode="normal" in="SourceGraphic" in2="effect1_dropShadow_5_316" result="shape"/>
</filter>
<filter id="filter1_d_5_316" x="0" y="0" width="761" height="288" filterUnits="userSpaceOnUse" color-interpolation-filters="sRGB">
<feFlood flood-opacity="0" result="BackgroundImageFix"/>
<feColorMatrix in="SourceAlpha" type="matrix" values="0 0 0 0 0 0 0 0 0 0 0 0 0 0 0 0 0 0 127 0" result="hardAlpha"/>
<feOffset dy="4"/>
<feGaussianBlur stdDeviation="2"/>
<feComposite in2="hardAlpha" operator="out"/>
<feColorMatrix type="matrix" values="0 0 0 0 0 0 0 0 0 0 0 0 0 0 0 0 0 0 0.25 0"/>
<feBlend mode="normal" in2="BackgroundImageFix" result="effect1_dropShadow_5_316"/>
<feBlend mode="normal" in="SourceGraphic" in2="effect1_dropShadow_5_316" result="shape"/>
</filter>
<clipPath id="clip0_5_316">
<rect width="668" height="200" fill="white" transform="translate(54 30)"/>
</clipPath>
</defs>
</svg>
