<svg width="221" height="92" viewBox="0 0 221 92" fill="none" xmlns="http://www.w3.org/2000/svg">
<g filter="url(#filter0_d_5_326)">
<rect x="4" width="213" height="84" fill="#E3DFF2"/>
<rect x="5.5" y="1.5" width="210" height="81" stroke="black" stroke-width="3"/>
</g>
<path d="M21.84 32V23.2H18.512V20.8H27.968V23.2H24.56V32H21.84ZM32.0266 32.16C31.1413 32.16 30.352 31.968 29.6586 31.584C28.976 31.2 28.432 30.6773 28.0266 30.016C27.632 29.3547 27.4346 28.5973 27.4346 27.744C27.4346 26.8907 27.632 26.1333 28.0266 25.472C28.432 24.8107 28.976 24.288 29.6586 23.904C30.352 23.52 31.1413 23.328 32.0266 23.328C32.912 23.328 33.696 23.52 34.3786 23.904C35.072 24.288 35.616 24.8107 36.0106 25.472C36.4053 26.1333 36.6026 26.8907 36.6026 27.744C36.6026 28.5973 36.4053 29.3547 36.0106 30.016C35.616 30.6773 35.072 31.2 34.3786 31.584C33.696 31.968 32.912 32.16 32.0266 32.16ZM32.0266 29.952C32.4106 29.952 32.752 29.856 33.0506 29.664C33.3493 29.472 33.584 29.2107 33.7546 28.88C33.9253 28.5493 34.0053 28.1707 33.9946 27.744C34.0053 27.3173 33.9253 26.9387 33.7546 26.608C33.584 26.2667 33.3493 26 33.0506 25.808C32.752 25.616 32.4106 25.52 32.0266 25.52C31.6426 25.52 31.296 25.616 30.9866 25.808C30.688 26 30.4533 26.2667 30.2826 26.608C30.112 26.9387 30.032 27.3173 30.0426 27.744C30.032 28.1707 30.112 28.5493 30.2826 28.88C30.4533 29.2107 30.688 29.472 30.9866 29.664C31.296 29.856 31.6426 29.952 32.0266 29.952ZM38.9806 32V21.36H41.5406V32H38.9806ZM37.4766 25.744V23.504H43.1886V25.744H37.4766ZM47.7095 32.144C46.9948 32.144 46.3548 31.9573 45.7895 31.584C45.2348 31.2 44.7922 30.6773 44.4615 30.016C44.1308 29.344 43.9655 28.5867 43.9655 27.744C43.9655 26.88 44.1308 26.1173 44.4615 25.456C44.7922 24.7947 45.2455 24.2773 45.8215 23.904C46.3975 23.52 47.0535 23.328 47.7895 23.328C48.1948 23.328 48.5628 23.3867 48.8935 23.504C49.2348 23.6213 49.5335 23.7867 49.7895 24C50.0455 24.2027 50.2642 24.4427 50.4455 24.72C50.6268 24.9867 50.7602 25.2747 50.8455 25.584L50.3175 25.52V23.504H52.8615V32H50.2695V29.952L50.8455 29.936C50.7602 30.2347 50.6215 30.5173 50.4295 30.784C50.2375 31.0507 50.0028 31.2853 49.7255 31.488C49.4482 31.6907 49.1388 31.8507 48.7975 31.968C48.4562 32.0853 48.0935 32.144 47.7095 32.144ZM48.4135 29.984C48.8082 29.984 49.1495 29.8933 49.4375 29.712C49.7255 29.5307 49.9495 29.2747 50.1095 28.944C50.2695 28.6027 50.3495 28.2027 50.3495 27.744C50.3495 27.2853 50.2695 26.8907 50.1095 26.56C49.9495 26.2187 49.7255 25.9573 49.4375 25.776C49.1495 25.584 48.8082 25.488 48.4135 25.488C48.0295 25.488 47.6935 25.584 47.4055 25.776C47.1282 25.9573 46.9095 26.2187 46.7495 26.56C46.5895 26.8907 46.5095 27.2853 46.5095 27.744C46.5095 28.2027 46.5895 28.6027 46.7495 28.944C46.9095 29.2747 47.1282 29.5307 47.4055 29.712C47.6935 29.8933 48.0295 29.984 48.4135 29.984ZM55.1364 32V20.16H57.6964V32H55.1364ZM65.1048 35.52V23.504H67.5368L67.6328 25.408L67.1528 25.264C67.2274 24.912 67.4088 24.592 67.6968 24.304C67.9848 24.016 68.3474 23.7867 68.7848 23.616C69.2328 23.4347 69.7021 23.344 70.1928 23.344C70.9181 23.344 71.5634 23.536 72.1288 23.92C72.6941 24.2933 73.1368 24.8107 73.4568 25.472C73.7874 26.1227 73.9528 26.88 73.9528 27.744C73.9528 28.5973 73.7874 29.3547 73.4568 30.016C73.1368 30.6773 72.6888 31.2 72.1128 31.584C71.5474 31.9573 70.8968 32.144 70.1608 32.144C69.6808 32.144 69.2221 32.0533 68.7848 31.872C68.3474 31.6907 67.9794 31.4453 67.6808 31.136C67.3821 30.8267 67.1848 30.4907 67.0888 30.128L67.6808 29.904V35.52H65.1048ZM69.5368 29.984C69.9208 29.984 70.2568 29.8933 70.5448 29.712C70.8328 29.52 71.0568 29.2587 71.2168 28.928C71.3768 28.5973 71.4568 28.2027 71.4568 27.744C71.4568 27.296 71.3768 26.9067 71.2168 26.576C71.0568 26.2347 70.8328 25.9733 70.5448 25.792C70.2674 25.6 69.9314 25.504 69.5368 25.504C69.1421 25.504 68.8008 25.5947 68.5128 25.776C68.2248 25.9573 68.0008 26.2187 67.8408 26.56C67.6808 26.9013 67.6008 27.296 67.6008 27.744C67.6008 28.2027 67.6808 28.5973 67.8408 28.928C68.0008 29.2587 68.2248 29.52 68.5128 29.712C68.8008 29.8933 69.1421 29.984 69.5368 29.984ZM78.7876 32.144C78.073 32.144 77.433 31.9573 76.8676 31.584C76.313 31.2 75.8703 30.6773 75.5396 30.016C75.209 29.344 75.0436 28.5867 75.0436 27.744C75.0436 26.88 75.209 26.1173 75.5396 25.456C75.8703 24.7947 76.3236 24.2773 76.8996 23.904C77.4756 23.52 78.1316 23.328 78.8676 23.328C79.273 23.328 79.641 23.3867 79.9716 23.504C80.313 23.6213 80.6116 23.7867 80.8676 24C81.1236 24.2027 81.3423 24.4427 81.5236 24.72C81.705 24.9867 81.8383 25.2747 81.9236 25.584L81.3956 25.52V23.504H83.9396V32H81.3476V29.952L81.9236 29.936C81.8383 30.2347 81.6996 30.5173 81.5076 30.784C81.3156 31.0507 81.081 31.2853 80.8036 31.488C80.5263 31.6907 80.217 31.8507 79.8756 31.968C79.5343 32.0853 79.1716 32.144 78.7876 32.144ZM79.4916 29.984C79.8863 29.984 80.2276 29.8933 80.5156 29.712C80.8036 29.5307 81.0276 29.2747 81.1876 28.944C81.3476 28.6027 81.4276 28.2027 81.4276 27.744C81.4276 27.2853 81.3476 26.8907 81.1876 26.56C81.0276 26.2187 80.8036 25.9573 80.5156 25.776C80.2276 25.584 79.8863 25.488 79.4916 25.488C79.1076 25.488 78.7716 25.584 78.4836 25.776C78.2063 25.9573 77.9876 26.2187 77.8276 26.56C77.6676 26.8907 77.5876 27.2853 77.5876 27.744C77.5876 28.2027 77.6676 28.6027 77.8276 28.944C77.9876 29.2747 78.2063 29.5307 78.4836 29.712C78.7716 29.8933 79.1076 29.984 79.4916 29.984ZM90.0865 35.68C89.3932 35.68 88.6998 35.5787 88.0065 35.376C87.3238 35.1733 86.7692 34.912 86.3425 34.592L87.2385 32.8C87.4625 32.9493 87.7078 33.0773 87.9745 33.184C88.2518 33.3013 88.5398 33.392 88.8385 33.456C89.1372 33.52 89.4412 33.552 89.7505 33.552C90.2945 33.552 90.7372 33.472 91.0785 33.312C91.4198 33.152 91.6758 32.9067 91.8465 32.576C92.0172 32.256 92.1025 31.8507 92.1025 31.36V29.936L92.5985 30.016C92.5238 30.368 92.3372 30.688 92.0385 30.976C91.7505 31.264 91.3932 31.4987 90.9665 31.68C90.5398 31.8507 90.0865 31.936 89.6065 31.936C88.8385 31.936 88.1505 31.76 87.5425 31.408C86.9452 31.0453 86.4705 30.5493 86.1185 29.92C85.7772 29.28 85.6065 28.544 85.6065 27.712C85.6065 26.8587 85.7772 26.1067 86.1185 25.456C86.4598 24.7947 86.9292 24.2773 87.5265 23.904C88.1238 23.52 88.7958 23.328 89.5425 23.328C89.8625 23.328 90.1665 23.3653 90.4545 23.44C90.7532 23.5147 91.0252 23.616 91.2705 23.744C91.5265 23.8613 91.7505 24.0053 91.9425 24.176C92.1452 24.336 92.3052 24.512 92.4225 24.704C92.5505 24.896 92.6358 25.0933 92.6785 25.296L92.1505 25.424L92.2465 23.504H94.6785V31.312C94.6785 32.0053 94.5718 32.6187 94.3585 33.152C94.1558 33.696 93.8518 34.1547 93.4465 34.528C93.0518 34.912 92.5718 35.2 92.0065 35.392C91.4412 35.584 90.8012 35.68 90.0865 35.68ZM90.1505 29.952C90.5665 29.952 90.9238 29.8613 91.2225 29.68C91.5318 29.488 91.7665 29.2267 91.9265 28.896C92.0972 28.5653 92.1825 28.176 92.1825 27.728C92.1825 27.28 92.0972 26.8907 91.9265 26.56C91.7665 26.2187 91.5318 25.9573 91.2225 25.776C90.9238 25.584 90.5665 25.488 90.1505 25.488C89.7452 25.488 89.3932 25.584 89.0945 25.776C88.7958 25.9573 88.5612 26.2187 88.3905 26.56C88.2305 26.8907 88.1505 27.28 88.1505 27.728C88.1505 28.176 88.2305 28.5653 88.3905 28.896C88.5612 29.2267 88.7958 29.488 89.0945 29.68C89.3932 29.8613 89.7452 29.952 90.1505 29.952ZM100.95 32.16C100.011 32.16 99.195 31.9733 98.5016 31.6C97.8083 31.216 97.2696 30.6987 96.8856 30.048C96.5016 29.3867 96.3096 28.6347 96.3096 27.792C96.3096 27.1413 96.4163 26.544 96.6296 26C96.843 25.456 97.1416 24.9867 97.5256 24.592C97.9096 24.1867 98.363 23.8773 98.8856 23.664C99.419 23.44 100 23.328 100.63 23.328C101.227 23.328 101.771 23.4347 102.262 23.648C102.763 23.8613 103.195 24.16 103.558 24.544C103.92 24.928 104.198 25.3813 104.39 25.904C104.582 26.4267 104.667 26.9973 104.646 27.616L104.63 28.304H97.8616L97.4936 26.864H102.55L102.278 27.168V26.848C102.256 26.5813 102.171 26.3467 102.022 26.144C101.883 25.9307 101.696 25.7653 101.462 25.648C101.227 25.5307 100.96 25.472 100.662 25.472C100.246 25.472 99.8883 25.5573 99.5896 25.728C99.3016 25.888 99.083 26.128 98.9336 26.448C98.7843 26.7573 98.7096 27.1413 98.7096 27.6C98.7096 28.0693 98.8056 28.48 98.9976 28.832C99.2003 29.1733 99.4883 29.44 99.8616 29.632C100.246 29.824 100.699 29.92 101.222 29.92C101.584 29.92 101.904 29.8667 102.182 29.76C102.47 29.6533 102.779 29.472 103.11 29.216L104.31 30.912C103.979 31.2 103.627 31.4347 103.254 31.616C102.88 31.7973 102.496 31.9307 102.102 32.016C101.718 32.112 101.334 32.16 100.95 32.16ZM114.01 32L110.458 23.504H113.29L115.402 29.856L114.778 29.92L116.954 23.504H119.754L116.026 32H114.01ZM121.233 32V23.504H123.793V32H121.233ZM122.513 21.824C122.033 21.824 121.654 21.712 121.377 21.488C121.11 21.2533 120.977 20.9227 120.977 20.496C120.977 20.112 121.116 19.7973 121.393 19.552C121.67 19.3067 122.044 19.184 122.513 19.184C122.993 19.184 123.366 19.3013 123.633 19.536C123.9 19.76 124.033 20.08 124.033 20.496C124.033 20.8907 123.894 21.2107 123.617 21.456C123.35 21.7013 122.982 21.824 122.513 21.824ZM129.062 32.16C128.231 32.16 127.495 32.0267 126.855 31.76C126.225 31.4933 125.724 31.136 125.351 30.688L126.903 29.344C127.233 29.6747 127.607 29.92 128.023 30.08C128.439 30.2293 128.833 30.304 129.207 30.304C129.356 30.304 129.489 30.288 129.607 30.256C129.724 30.224 129.82 30.1813 129.895 30.128C129.98 30.064 130.044 29.9947 130.087 29.92C130.129 29.8347 130.151 29.7387 130.151 29.632C130.151 29.4187 130.055 29.2533 129.863 29.136C129.767 29.0827 129.607 29.0187 129.383 28.944C129.159 28.8693 128.871 28.784 128.519 28.688C128.017 28.56 127.58 28.4107 127.207 28.24C126.844 28.0587 126.545 27.8507 126.311 27.616C126.097 27.392 125.932 27.1467 125.815 26.88C125.697 26.6027 125.639 26.2933 125.639 25.952C125.639 25.5573 125.729 25.2 125.911 24.88C126.103 24.56 126.353 24.2827 126.663 24.048C126.983 23.8133 127.345 23.6373 127.751 23.52C128.167 23.392 128.593 23.328 129.031 23.328C129.5 23.328 129.948 23.3813 130.375 23.488C130.801 23.5947 131.196 23.744 131.559 23.936C131.932 24.128 132.263 24.3573 132.551 24.624L131.207 26.128C131.015 25.9467 130.796 25.7867 130.551 25.648C130.316 25.4987 130.071 25.3813 129.815 25.296C129.559 25.2107 129.324 25.168 129.111 25.168C128.951 25.168 128.807 25.184 128.679 25.216C128.561 25.2373 128.46 25.28 128.375 25.344C128.289 25.3973 128.225 25.4667 128.183 25.552C128.14 25.6267 128.119 25.7173 128.119 25.824C128.119 25.9307 128.145 26.032 128.199 26.128C128.263 26.224 128.348 26.304 128.455 26.368C128.561 26.432 128.732 26.5067 128.967 26.592C129.201 26.6667 129.521 26.7627 129.927 26.88C130.428 27.0187 130.86 27.1733 131.223 27.344C131.585 27.5147 131.873 27.7173 132.087 27.952C132.257 28.1333 132.385 28.3467 132.471 28.592C132.556 28.8267 132.599 29.0827 132.599 29.36C132.599 29.904 132.444 30.3893 132.135 30.816C131.836 31.232 131.42 31.5627 130.887 31.808C130.353 32.0427 129.745 32.16 129.062 32.16ZM134.264 32V23.504H136.824V32H134.264ZM135.544 21.824C135.064 21.824 134.686 21.712 134.408 21.488C134.142 21.2533 134.008 20.9227 134.008 20.496C134.008 20.112 134.147 19.7973 134.424 19.552C134.702 19.3067 135.075 19.184 135.544 19.184C136.024 19.184 136.398 19.3013 136.664 19.536C136.931 19.76 137.064 20.08 137.064 20.496C137.064 20.8907 136.926 21.2107 136.648 21.456C136.382 21.7013 136.014 21.824 135.544 21.824ZM139.934 32V21.36H142.494V32H139.934ZM138.43 25.744V23.504H144.142V25.744H138.43ZM148.781 32.16C147.949 32.16 147.213 32.0267 146.573 31.76C145.944 31.4933 145.443 31.136 145.069 30.688L146.621 29.344C146.952 29.6747 147.325 29.92 147.741 30.08C148.157 30.2293 148.552 30.304 148.925 30.304C149.075 30.304 149.208 30.288 149.325 30.256C149.443 30.224 149.539 30.1813 149.613 30.128C149.699 30.064 149.763 29.9947 149.805 29.92C149.848 29.8347 149.869 29.7387 149.869 29.632C149.869 29.4187 149.773 29.2533 149.581 29.136C149.485 29.0827 149.325 29.0187 149.101 28.944C148.877 28.8693 148.589 28.784 148.237 28.688C147.736 28.56 147.299 28.4107 146.925 28.24C146.563 28.0587 146.264 27.8507 146.029 27.616C145.816 27.392 145.651 27.1467 145.533 26.88C145.416 26.6027 145.357 26.2933 145.357 25.952C145.357 25.5573 145.448 25.2 145.629 24.88C145.821 24.56 146.072 24.2827 146.381 24.048C146.701 23.8133 147.064 23.6373 147.469 23.52C147.885 23.392 148.312 23.328 148.749 23.328C149.219 23.328 149.667 23.3813 150.093 23.488C150.52 23.5947 150.915 23.744 151.277 23.936C151.651 24.128 151.981 24.3573 152.269 24.624L150.925 26.128C150.733 25.9467 150.515 25.7867 150.269 25.648C150.035 25.4987 149.789 25.3813 149.533 25.296C149.277 25.2107 149.043 25.168 148.829 25.168C148.669 25.168 148.525 25.184 148.397 25.216C148.28 25.2373 148.179 25.28 148.093 25.344C148.008 25.3973 147.944 25.4667 147.901 25.552C147.859 25.6267 147.837 25.7173 147.837 25.824C147.837 25.9307 147.864 26.032 147.917 26.128C147.981 26.224 148.067 26.304 148.173 26.368C148.28 26.432 148.451 26.5067 148.685 26.592C148.92 26.6667 149.24 26.7627 149.645 26.88C150.147 27.0187 150.579 27.1733 150.941 27.344C151.304 27.5147 151.592 27.7173 151.805 27.952C151.976 28.1333 152.104 28.3467 152.189 28.592C152.275 28.8267 152.317 29.0827 152.317 29.36C152.317 29.904 152.163 30.3893 151.853 30.816C151.555 31.232 151.139 31.5627 150.605 31.808C150.072 32.0427 149.464 32.16 148.781 32.16Z" fill="#3300FF"/>
<path d="M23.064 62.824V49.192L23.952 51.232L20.352 52.936L19.656 49.288L24.432 46.96H27.072V62.824H23.064ZM19.992 64V60.4H30.216V64H19.992ZM32.8691 64L32.0771 62.032L36.9731 56.68C37.2451 56.376 37.5411 56.032 37.8611 55.648C38.1811 55.264 38.4931 54.872 38.7971 54.472C39.1011 54.056 39.3411 53.656 39.5171 53.272C39.7091 52.888 39.8051 52.536 39.8051 52.216C39.8051 51.896 39.7331 51.616 39.5891 51.376C39.4451 51.136 39.2371 50.952 38.9651 50.824C38.6931 50.68 38.3491 50.608 37.9331 50.608C37.5651 50.608 37.2131 50.704 36.8771 50.896C36.5411 51.072 36.2211 51.352 35.9171 51.736C35.6291 52.12 35.3571 52.592 35.1011 53.152L32.0771 51.52C32.4131 50.592 32.8851 49.776 33.4931 49.072C34.1171 48.352 34.8451 47.8 35.6771 47.416C36.5091 47.016 37.3971 46.816 38.3411 46.816C39.3331 46.832 40.2291 47.048 41.0291 47.464C41.8291 47.864 42.4611 48.432 42.9251 49.168C43.4051 49.888 43.6451 50.736 43.6451 51.712C43.6451 52.048 43.6051 52.4 43.5251 52.768C43.4451 53.136 43.3251 53.52 43.1651 53.92C43.0051 54.304 42.7891 54.72 42.5171 55.168C42.2611 55.6 41.9491 56.056 41.5811 56.536C41.2131 57.016 40.7811 57.528 40.2851 58.072L36.4691 62.224L35.9891 60.4H44.3891V64H32.8691ZM46.6416 68.8L45.5376 67.432C46.1776 67.144 46.6896 66.776 47.0736 66.328C47.4576 65.896 47.6496 65.52 47.6496 65.2C47.6496 65.056 47.6096 64.896 47.5296 64.72C47.4656 64.56 47.2896 64.376 47.0016 64.168C46.6336 63.896 46.3856 63.632 46.2576 63.376C46.1296 63.104 46.0656 62.808 46.0656 62.488C46.0656 61.992 46.2416 61.6 46.5936 61.312C46.9616 61.024 47.4336 60.88 48.0096 60.88C48.4736 60.88 48.8896 61.008 49.2576 61.264C49.6416 61.52 49.9376 61.872 50.1456 62.32C50.3696 62.768 50.4816 63.288 50.4816 63.88C50.4816 64.424 50.3856 64.944 50.1936 65.44C50.0016 65.952 49.7296 66.424 49.3776 66.856C49.0416 67.304 48.6336 67.696 48.1536 68.032C47.6896 68.368 47.1856 68.624 46.6416 68.8ZM59.5802 64.24C58.0762 64.24 56.7882 63.896 55.7162 63.208C54.6602 62.52 53.8522 61.536 53.2922 60.256C52.7322 58.96 52.4522 57.408 52.4522 55.6C52.4522 53.792 52.7322 52.248 53.2922 50.968C53.8522 49.672 54.6602 48.68 55.7162 47.992C56.7882 47.304 58.0762 46.96 59.5802 46.96C61.0842 46.96 62.3722 47.304 63.4442 47.992C64.5162 48.68 65.3322 49.672 65.8922 50.968C66.4522 52.248 66.7322 53.792 66.7322 55.6C66.7322 57.408 66.4522 58.96 65.8922 60.256C65.3322 61.536 64.5162 62.52 63.4442 63.208C62.3722 63.896 61.0842 64.24 59.5802 64.24ZM59.5802 60.784C60.6202 60.784 61.4202 60.336 61.9802 59.44C62.5562 58.544 62.8442 57.264 62.8442 55.6C62.8442 53.888 62.5562 52.576 61.9802 51.664C61.4202 50.736 60.6202 50.272 59.5802 50.272C58.5402 50.272 57.7322 50.736 57.1562 51.664C56.5962 52.576 56.3162 53.888 56.3162 55.6C56.3162 57.264 56.5962 58.544 57.1562 59.44C57.7322 60.336 58.5402 60.784 59.5802 60.784ZM75.7755 64.24C74.2715 64.24 72.9835 63.896 71.9115 63.208C70.8555 62.52 70.0475 61.536 69.4875 60.256C68.9275 58.96 68.6475 57.408 68.6475 55.6C68.6475 53.792 68.9275 52.248 69.4875 50.968C70.0475 49.672 70.8555 48.68 71.9115 47.992C72.9835 47.304 74.2715 46.96 75.7755 46.96C77.2795 46.96 78.5675 47.304 79.6395 47.992C80.7115 48.68 81.5275 49.672 82.0875 50.968C82.6475 52.248 82.9275 53.792 82.9275 55.6C82.9275 57.408 82.6475 58.96 82.0875 60.256C81.5275 61.536 80.7115 62.52 79.6395 63.208C78.5675 63.896 77.2795 64.24 75.7755 64.24ZM75.7755 60.784C76.8155 60.784 77.6155 60.336 78.1755 59.44C78.7515 58.544 79.0395 57.264 79.0395 55.6C79.0395 53.888 78.7515 52.576 78.1755 51.664C77.6155 50.736 76.8155 50.272 75.7755 50.272C74.7355 50.272 73.9275 50.736 73.3515 51.664C72.7915 52.576 72.5115 53.888 72.5115 55.6C72.5115 57.264 72.7915 58.544 73.3515 59.44C73.9275 60.336 74.7355 60.784 75.7755 60.784ZM91.9708 64.24C90.4668 64.24 89.1788 63.896 88.1068 63.208C87.0508 62.52 86.2428 61.536 85.6828 60.256C85.1228 58.96 84.8428 57.408 84.8428 55.6C84.8428 53.792 85.1228 52.248 85.6828 50.968C86.2428 49.672 87.0508 48.68 88.1068 47.992C89.1788 47.304 90.4668 46.96 91.9708 46.96C93.4748 46.96 94.7628 47.304 95.8348 47.992C96.9068 48.68 97.7228 49.672 98.2828 50.968C98.8428 52.248 99.1228 53.792 99.1228 55.6C99.1228 57.408 98.8428 58.96 98.2828 60.256C97.7228 61.536 96.9068 62.52 95.8348 63.208C94.7628 63.896 93.4748 64.24 91.9708 64.24ZM91.9708 60.784C93.0108 60.784 93.8108 60.336 94.3708 59.44C94.9468 58.544 95.2348 57.264 95.2348 55.6C95.2348 53.888 94.9468 52.576 94.3708 51.664C93.8108 50.736 93.0108 50.272 91.9708 50.272C90.9308 50.272 90.1228 50.736 89.5468 51.664C88.9868 52.576 88.7068 53.888 88.7068 55.6C88.7068 57.264 88.9868 58.544 89.5468 59.44C90.1228 60.336 90.9308 60.784 91.9708 60.784Z" fill="black"/>
<path d="M108.384 60.256V59.208H112.392V60.256H108.384ZM109.816 61.688V57.776H110.952V61.688H109.816ZM115.069 62.08C114.616 62.08 114.219 61.9867 113.877 61.8C113.541 61.608 113.235 61.28 112.957 60.816L113.933 60.184C114.051 60.3707 114.171 60.52 114.293 60.632C114.421 60.744 114.552 60.8267 114.685 60.88C114.824 60.928 114.968 60.952 115.117 60.952C115.267 60.952 115.403 60.92 115.525 60.856C115.653 60.7867 115.755 60.6907 115.829 60.568C115.909 60.4453 115.949 60.3067 115.949 60.152C115.949 59.9867 115.915 59.848 115.845 59.736C115.781 59.6187 115.685 59.5307 115.557 59.472C115.435 59.4133 115.285 59.384 115.109 59.384C115.029 59.384 114.944 59.3947 114.853 59.416C114.763 59.432 114.667 59.456 114.565 59.488C114.464 59.52 114.36 59.5627 114.253 59.616L113.957 58.824L115.317 57.344L115.685 57.544L113.349 57.496V56.352H116.789L117.037 56.848L115.189 58.832L114.869 58.456C114.912 58.4347 114.981 58.416 115.077 58.4C115.179 58.3787 115.275 58.368 115.365 58.368C115.616 58.368 115.851 58.4133 116.069 58.504C116.288 58.5947 116.483 58.72 116.653 58.88C116.824 59.04 116.957 59.2293 117.053 59.448C117.149 59.6613 117.197 59.8907 117.197 60.136C117.197 60.5093 117.101 60.8427 116.909 61.136C116.723 61.424 116.467 61.6533 116.141 61.824C115.821 61.9947 115.464 62.08 115.069 62.08ZM119.796 62.08C119.343 62.08 118.945 61.9867 118.604 61.8C118.268 61.608 117.961 61.28 117.684 60.816L118.66 60.184C118.777 60.3707 118.897 60.52 119.02 60.632C119.148 60.744 119.279 60.8267 119.412 60.88C119.551 60.928 119.695 60.952 119.844 60.952C119.993 60.952 120.129 60.92 120.252 60.856C120.38 60.7867 120.481 60.6907 120.556 60.568C120.636 60.4453 120.676 60.3067 120.676 60.152C120.676 59.9867 120.641 59.848 120.572 59.736C120.508 59.6187 120.412 59.5307 120.284 59.472C120.161 59.4133 120.012 59.384 119.836 59.384C119.756 59.384 119.671 59.3947 119.58 59.416C119.489 59.432 119.393 59.456 119.292 59.488C119.191 59.52 119.087 59.5627 118.98 59.616L118.684 58.824L120.044 57.344L120.412 57.544L118.076 57.496V56.352H121.516L121.764 56.848L119.916 58.832L119.596 58.456C119.639 58.4347 119.708 58.416 119.804 58.4C119.905 58.3787 120.001 58.368 120.092 58.368C120.343 58.368 120.577 58.4133 120.796 58.504C121.015 58.5947 121.209 58.72 121.38 58.88C121.551 59.04 121.684 59.2293 121.78 59.448C121.876 59.6613 121.924 59.8907 121.924 60.136C121.924 60.5093 121.828 60.8427 121.636 61.136C121.449 61.424 121.193 61.6533 120.868 61.824C120.548 61.9947 120.191 62.08 119.796 62.08ZM123.595 62L127.299 56.4H128.491L124.747 62H123.595ZM123.955 59.368C123.683 59.368 123.44 59.3013 123.227 59.168C123.013 59.0293 122.845 58.8427 122.723 58.608C122.605 58.3733 122.547 58.1067 122.547 57.808C122.547 57.504 122.605 57.2347 122.723 57C122.845 56.76 123.013 56.5733 123.227 56.44C123.44 56.3067 123.683 56.24 123.955 56.24C124.232 56.24 124.475 56.3067 124.683 56.44C124.896 56.5733 125.061 56.76 125.179 57C125.296 57.2347 125.355 57.504 125.355 57.808C125.355 58.1067 125.293 58.3733 125.171 58.608C125.048 58.8427 124.88 59.0293 124.667 59.168C124.459 59.3013 124.221 59.368 123.955 59.368ZM123.955 58.544C124.045 58.544 124.12 58.5147 124.179 58.456C124.243 58.3973 124.291 58.312 124.323 58.2C124.355 58.088 124.371 57.9573 124.371 57.808C124.371 57.6587 124.355 57.528 124.323 57.416C124.291 57.304 124.243 57.2187 124.179 57.16C124.12 57.096 124.045 57.064 123.955 57.064C123.869 57.064 123.795 57.096 123.731 57.16C123.667 57.2187 123.616 57.304 123.579 57.416C123.547 57.528 123.531 57.6587 123.531 57.808C123.531 57.9573 123.547 58.088 123.579 58.2C123.611 58.312 123.659 58.3973 123.723 58.456C123.792 58.5147 123.869 58.544 123.955 58.544ZM128.219 62.08C127.947 62.08 127.704 62.0107 127.491 61.872C127.277 61.7333 127.109 61.5493 126.987 61.32C126.869 61.0853 126.811 60.8187 126.811 60.52C126.811 60.216 126.869 59.9467 126.987 59.712C127.104 59.472 127.269 59.2853 127.483 59.152C127.696 59.0187 127.941 58.952 128.219 58.952C128.496 58.952 128.739 59.0187 128.947 59.152C129.16 59.2853 129.325 59.472 129.443 59.712C129.56 59.9467 129.619 60.216 129.619 60.52C129.619 60.8133 129.557 61.0773 129.435 61.312C129.312 61.5467 129.144 61.7333 128.931 61.872C128.723 62.0107 128.485 62.08 128.219 62.08ZM128.219 61.256C128.309 61.256 128.384 61.2267 128.443 61.168C128.507 61.104 128.555 61.0187 128.587 60.912C128.619 60.8 128.635 60.6693 128.635 60.52C128.635 60.3707 128.619 60.24 128.587 60.128C128.555 60.016 128.507 59.9307 128.443 59.872C128.384 59.808 128.309 59.776 128.219 59.776C128.128 59.776 128.051 59.8053 127.987 59.864C127.923 59.9227 127.872 60.0107 127.835 60.128C127.803 60.24 127.787 60.3707 127.787 60.52C127.787 60.6693 127.803 60.8 127.835 60.912C127.872 61.0187 127.923 61.104 127.987 61.168C128.051 61.2267 128.128 61.256 128.219 61.256ZM133.363 62V57.544C133.363 57.2667 133.422 57.016 133.539 56.792C133.662 56.568 133.83 56.392 134.043 56.264C134.262 56.1307 134.515 56.064 134.803 56.064C135.006 56.064 135.193 56.0933 135.363 56.152C135.534 56.2107 135.686 56.2933 135.819 56.4L135.451 57.336C135.382 57.2987 135.315 57.2693 135.251 57.248C135.187 57.2267 135.129 57.216 135.075 57.216C134.979 57.216 134.899 57.232 134.835 57.264C134.771 57.296 134.723 57.3467 134.691 57.416C134.665 57.48 134.651 57.56 134.651 57.656V62H134.011C133.867 62 133.739 62 133.627 62C133.521 62 133.433 62 133.363 62ZM132.747 58.928V57.872H135.523V58.928H132.747ZM136.24 62V57.752H137.456L137.512 59.136L137.272 58.872C137.336 58.6427 137.44 58.4373 137.584 58.256C137.733 58.0747 137.907 57.9307 138.104 57.824C138.301 57.7173 138.512 57.664 138.736 57.664C138.832 57.664 138.92 57.672 139 57.688C139.085 57.704 139.163 57.7227 139.232 57.744L138.88 59.16C138.821 59.1227 138.741 59.0933 138.64 59.072C138.544 59.0453 138.443 59.032 138.336 59.032C138.219 59.032 138.109 59.0533 138.008 59.096C137.907 59.1333 137.821 59.1893 137.752 59.264C137.683 59.3387 137.627 59.4267 137.584 59.528C137.547 59.6293 137.528 59.744 137.528 59.872V62H136.24ZM141.701 62.08C141.258 62.08 140.863 61.984 140.517 61.792C140.175 61.6 139.903 61.3387 139.701 61.008C139.503 60.6773 139.405 60.2987 139.405 59.872C139.405 59.4453 139.503 59.0667 139.701 58.736C139.903 58.4053 140.175 58.144 140.517 57.952C140.863 57.76 141.258 57.664 141.701 57.664C142.143 57.664 142.535 57.76 142.877 57.952C143.223 58.144 143.495 58.4053 143.693 58.736C143.89 59.0667 143.989 59.4453 143.989 59.872C143.989 60.2987 143.89 60.6773 143.693 61.008C143.495 61.3387 143.223 61.6 142.877 61.792C142.535 61.984 142.143 62.08 141.701 62.08ZM141.701 60.976C141.893 60.976 142.063 60.928 142.213 60.832C142.362 60.736 142.479 60.6053 142.565 60.44C142.65 60.2747 142.69 60.0853 142.685 59.872C142.69 59.6587 142.65 59.4693 142.565 59.304C142.479 59.1333 142.362 59 142.213 58.904C142.063 58.808 141.893 58.76 141.701 58.76C141.509 58.76 141.335 58.808 141.181 58.904C141.031 59 140.914 59.1333 140.829 59.304C140.743 59.4693 140.703 59.6587 140.709 59.872C140.703 60.0853 140.743 60.2747 140.829 60.44C140.914 60.6053 141.031 60.736 141.181 60.832C141.335 60.928 141.509 60.976 141.701 60.976ZM144.818 62V57.752H146.034L146.074 58.52L145.906 58.528C145.97 58.3893 146.05 58.2667 146.146 58.16C146.247 58.0533 146.359 57.9653 146.482 57.896C146.61 57.8213 146.74 57.7653 146.874 57.728C147.012 57.6907 147.151 57.672 147.29 57.672C147.498 57.672 147.687 57.704 147.858 57.768C148.028 57.832 148.178 57.936 148.306 58.08C148.434 58.2187 148.535 58.408 148.61 58.648L148.41 58.632L148.474 58.504C148.543 58.376 148.631 58.2613 148.738 58.16C148.85 58.0533 148.972 57.9653 149.106 57.896C149.239 57.8213 149.378 57.7653 149.522 57.728C149.666 57.6907 149.804 57.672 149.938 57.672C150.274 57.672 150.554 57.7387 150.778 57.872C151.002 58 151.17 58.1947 151.282 58.456C151.399 58.7173 151.458 59.0347 151.458 59.408V62H150.17V59.512C150.17 59.3413 150.146 59.2 150.098 59.088C150.05 58.976 149.978 58.8933 149.882 58.84C149.791 58.7813 149.676 58.752 149.538 58.752C149.426 58.752 149.322 58.7707 149.226 58.808C149.135 58.8453 149.055 58.896 148.986 58.96C148.922 59.024 148.871 59.0987 148.834 59.184C148.796 59.2693 148.778 59.3653 148.778 59.472V62H147.49V59.504C147.49 59.344 147.466 59.208 147.418 59.096C147.37 58.984 147.298 58.8987 147.202 58.84C147.106 58.7813 146.994 58.752 146.866 58.752C146.754 58.752 146.65 58.7707 146.554 58.808C146.463 58.8453 146.383 58.896 146.314 58.96C146.25 59.024 146.199 59.0987 146.162 59.184C146.124 59.2693 146.106 59.3627 146.106 59.464V62H144.818ZM155.092 62V56.08H156.372V62H155.092ZM159.003 62.072C158.646 62.072 158.326 61.9787 158.043 61.792C157.766 61.6 157.545 61.3387 157.379 61.008C157.214 60.672 157.131 60.2933 157.131 59.872C157.131 59.44 157.214 59.0587 157.379 58.728C157.545 58.3973 157.771 58.1387 158.059 57.952C158.347 57.76 158.675 57.664 159.043 57.664C159.246 57.664 159.43 57.6933 159.595 57.752C159.766 57.8107 159.915 57.8933 160.043 58C160.171 58.1013 160.281 58.2213 160.371 58.36C160.462 58.4933 160.529 58.6373 160.571 58.792L160.307 58.76V57.752H161.579V62H160.283V60.976L160.571 60.968C160.529 61.1173 160.459 61.2587 160.363 61.392C160.267 61.5253 160.15 61.6427 160.011 61.744C159.873 61.8453 159.718 61.9253 159.547 61.984C159.377 62.0427 159.195 62.072 159.003 62.072ZM159.355 60.992C159.553 60.992 159.723 60.9467 159.867 60.856C160.011 60.7653 160.123 60.6373 160.203 60.472C160.283 60.3013 160.323 60.1013 160.323 59.872C160.323 59.6427 160.283 59.4453 160.203 59.28C160.123 59.1093 160.011 58.9787 159.867 58.888C159.723 58.792 159.553 58.744 159.355 58.744C159.163 58.744 158.995 58.792 158.851 58.888C158.713 58.9787 158.603 59.1093 158.523 59.28C158.443 59.4453 158.403 59.6427 158.403 59.872C158.403 60.1013 158.443 60.3013 158.523 60.472C158.603 60.6373 158.713 60.7653 158.851 60.856C158.995 60.9467 159.163 60.992 159.355 60.992ZM164.141 62.08C163.725 62.08 163.357 62.0133 163.037 61.88C162.722 61.7467 162.471 61.568 162.285 61.344L163.061 60.672C163.226 60.8373 163.413 60.96 163.621 61.04C163.829 61.1147 164.026 61.152 164.213 61.152C164.287 61.152 164.354 61.144 164.413 61.128C164.471 61.112 164.519 61.0907 164.557 61.064C164.599 61.032 164.631 60.9973 164.653 60.96C164.674 60.9173 164.685 60.8693 164.685 60.816C164.685 60.7093 164.637 60.6267 164.541 60.568C164.493 60.5413 164.413 60.5093 164.301 60.472C164.189 60.4347 164.045 60.392 163.869 60.344C163.618 60.28 163.399 60.2053 163.213 60.12C163.031 60.0293 162.882 59.9253 162.765 59.808C162.658 59.696 162.575 59.5733 162.517 59.44C162.458 59.3013 162.429 59.1467 162.429 58.976C162.429 58.7787 162.474 58.6 162.565 58.44C162.661 58.28 162.786 58.1413 162.941 58.024C163.101 57.9067 163.282 57.8187 163.485 57.76C163.693 57.696 163.906 57.664 164.125 57.664C164.359 57.664 164.583 57.6907 164.797 57.744C165.01 57.7973 165.207 57.872 165.389 57.968C165.575 58.064 165.741 58.1787 165.885 58.312L165.213 59.064C165.117 58.9733 165.007 58.8933 164.885 58.824C164.767 58.7493 164.645 58.6907 164.517 58.648C164.389 58.6053 164.271 58.584 164.165 58.584C164.085 58.584 164.013 58.592 163.949 58.608C163.89 58.6187 163.839 58.64 163.797 58.672C163.754 58.6987 163.722 58.7333 163.701 58.776C163.679 58.8133 163.669 58.8587 163.669 58.912C163.669 58.9653 163.682 59.016 163.709 59.064C163.741 59.112 163.783 59.152 163.837 59.184C163.89 59.216 163.975 59.2533 164.093 59.296C164.21 59.3333 164.37 59.3813 164.573 59.44C164.823 59.5093 165.039 59.5867 165.221 59.672C165.402 59.7573 165.546 59.8587 165.653 59.976C165.738 60.0667 165.802 60.1733 165.845 60.296C165.887 60.4133 165.909 60.5413 165.909 60.68C165.909 60.952 165.831 61.1947 165.677 61.408C165.527 61.616 165.319 61.7813 165.053 61.904C164.786 62.0213 164.482 62.08 164.141 62.08ZM167.022 62V56.68H168.302V62H167.022ZM166.27 58.872V57.752H169.126V58.872H166.27ZM172.412 62V57.752H173.628L173.668 58.52L173.5 58.528C173.564 58.3893 173.644 58.2667 173.74 58.16C173.841 58.0533 173.953 57.9653 174.076 57.896C174.204 57.8213 174.334 57.7653 174.468 57.728C174.606 57.6907 174.745 57.672 174.884 57.672C175.092 57.672 175.281 57.704 175.452 57.768C175.622 57.832 175.772 57.936 175.9 58.08C176.028 58.2187 176.129 58.408 176.204 58.648L176.004 58.632L176.068 58.504C176.137 58.376 176.225 58.2613 176.332 58.16C176.444 58.0533 176.566 57.9653 176.7 57.896C176.833 57.8213 176.972 57.7653 177.116 57.728C177.26 57.6907 177.398 57.672 177.532 57.672C177.868 57.672 178.148 57.7387 178.372 57.872C178.596 58 178.764 58.1947 178.876 58.456C178.993 58.7173 179.052 59.0347 179.052 59.408V62H177.764V59.512C177.764 59.3413 177.74 59.2 177.692 59.088C177.644 58.976 177.572 58.8933 177.476 58.84C177.385 58.7813 177.27 58.752 177.132 58.752C177.02 58.752 176.916 58.7707 176.82 58.808C176.729 58.8453 176.649 58.896 176.58 58.96C176.516 59.024 176.465 59.0987 176.428 59.184C176.39 59.2693 176.372 59.3653 176.372 59.472V62H175.084V59.504C175.084 59.344 175.06 59.208 175.012 59.096C174.964 58.984 174.892 58.8987 174.796 58.84C174.7 58.7813 174.588 58.752 174.46 58.752C174.348 58.752 174.244 58.7707 174.148 58.808C174.057 58.8453 173.977 58.896 173.908 58.96C173.844 59.024 173.793 59.0987 173.756 59.184C173.718 59.2693 173.7 59.3627 173.7 59.464V62H172.412ZM182.115 62.08C181.672 62.08 181.278 61.984 180.931 61.792C180.59 61.6 180.318 61.3387 180.115 61.008C179.918 60.6773 179.819 60.2987 179.819 59.872C179.819 59.4453 179.918 59.0667 180.115 58.736C180.318 58.4053 180.59 58.144 180.931 57.952C181.278 57.76 181.672 57.664 182.115 57.664C182.558 57.664 182.95 57.76 183.291 57.952C183.638 58.144 183.91 58.4053 184.107 58.736C184.304 59.0667 184.403 59.4453 184.403 59.872C184.403 60.2987 184.304 60.6773 184.107 61.008C183.91 61.3387 183.638 61.6 183.291 61.792C182.95 61.984 182.558 62.08 182.115 62.08ZM182.115 60.976C182.307 60.976 182.478 60.928 182.627 60.832C182.776 60.736 182.894 60.6053 182.979 60.44C183.064 60.2747 183.104 60.0853 183.099 59.872C183.104 59.6587 183.064 59.4693 182.979 59.304C182.894 59.1333 182.776 59 182.627 58.904C182.478 58.808 182.307 58.76 182.115 58.76C181.923 58.76 181.75 58.808 181.595 58.904C181.446 59 181.328 59.1333 181.243 59.304C181.158 59.4693 181.118 59.6587 181.123 59.872C181.118 60.0853 181.158 60.2747 181.243 60.44C181.328 60.6053 181.446 60.736 181.595 60.832C181.75 60.928 181.923 60.976 182.115 60.976ZM185.24 62V57.752H186.456L186.496 58.616L186.24 58.712C186.299 58.52 186.403 58.3467 186.552 58.192C186.707 58.032 186.891 57.904 187.104 57.808C187.317 57.712 187.541 57.664 187.776 57.664C188.096 57.664 188.365 57.7307 188.584 57.864C188.803 57.992 188.968 58.1867 189.08 58.448C189.192 58.704 189.248 59.0187 189.248 59.392V62H187.96V59.496C187.96 59.3253 187.936 59.184 187.888 59.072C187.84 58.96 187.765 58.8773 187.664 58.824C187.568 58.7653 187.448 58.7387 187.304 58.744C187.192 58.744 187.088 58.7627 186.992 58.8C186.896 58.832 186.813 58.8827 186.744 58.952C186.675 59.016 186.619 59.0907 186.576 59.176C186.539 59.2613 186.52 59.3547 186.52 59.456V62H185.888C185.739 62 185.611 62 185.504 62C185.397 62 185.309 62 185.24 62ZM190.67 62V56.68H191.95V62H190.67ZM189.918 58.872V57.752H192.774V58.872H189.918ZM193.506 62V56.08H194.762V58.616L194.506 58.712C194.564 58.52 194.668 58.3467 194.818 58.192C194.972 58.032 195.156 57.904 195.37 57.808C195.583 57.712 195.807 57.664 196.042 57.664C196.362 57.664 196.631 57.7307 196.85 57.864C197.068 57.992 197.234 58.1867 197.345 58.448C197.458 58.704 197.514 59.0187 197.514 59.392V62H196.226V59.496C196.226 59.3253 196.202 59.184 196.154 59.072C196.106 58.96 196.031 58.8773 195.93 58.824C195.834 58.7653 195.714 58.7387 195.57 58.744C195.458 58.744 195.354 58.7627 195.258 58.8C195.162 58.832 195.079 58.8827 195.01 58.952C194.94 59.016 194.884 59.0907 194.842 59.176C194.804 59.2613 194.786 59.3547 194.786 59.456V62H194.154C194.004 62 193.876 62 193.77 62C193.663 62 193.575 62 193.506 62Z" fill="#13DE13"/>
<defs>
<filter id="filter0_d_5_326" x="0" y="0" width="221" height="92" filterUnits="userSpaceOnUse" color-interpolation-filters="sRGB">
<feFlood flood-opacity="0" result="BackgroundImageFix"/>
<feColorMatrix in="SourceAlpha" type="matrix" values="0 0 0 0 0 0 0 0 0 0 0 0 0 0 0 0 0 0 127 0" result="hardAlpha"/>
<feOffset dy="4"/>
<feGaussianBlur stdDeviation="2"/>
<feComposite in2="hardAlpha" operator="out"/>
<feColorMatrix type="matrix" values="0 0 0 0 0 0 0 0 0 0 0 0 0 0 0 0 0 0 0.25 0"/>
<feBlend mode="normal" in2="BackgroundImageFix" result="effect1_dropShadow_5_326"/>
<feBlend mode="normal" in="SourceGraphic" in2="effect1_dropShadow_5_326" result="shape"/>
</filter>
</defs>
</svg>
